<svg width="145" height="200" viewBox="0 0 145 200" fill="none" xmlns="http://www.w3.org/2000/svg">
<path d="M0 72.5C0 32.4594 32.4594 0 72.5 0C112.541 0 145 32.4594 145 72.5V175C145 188.807 133.807 200 120 200H25C11.1929 200 0 188.807 0 175V72.5Z" fill="#F68B1F"/>
<path d="M51.2812 167.574H53.5312C53.4141 168.652 53.1055 169.617 52.6055 170.469C52.1055 171.32 51.3984 171.996 50.4844 172.496C49.5703 172.988 48.4297 173.234 47.0625 173.234C46.0625 173.234 45.1523 173.047 44.332 172.672C43.5195 172.297 42.8203 171.766 42.2344 171.078C41.6484 170.383 41.1953 169.551 40.875 168.582C40.5625 167.605 40.4062 166.52 40.4062 165.324V163.625C40.4062 162.43 40.5625 161.348 40.875 160.379C41.1953 159.402 41.6523 158.566 42.2461 157.871C42.8477 157.176 43.5703 156.641 44.4141 156.266C45.2578 155.891 46.207 155.703 47.2617 155.703C48.5508 155.703 49.6406 155.945 50.5312 156.43C51.4219 156.914 52.1133 157.586 52.6055 158.445C53.1055 159.297 53.4141 160.285 53.5312 161.41H51.2812C51.1719 160.613 50.9688 159.93 50.6719 159.359C50.375 158.781 49.9531 158.336 49.4062 158.023C48.8594 157.711 48.1445 157.555 47.2617 157.555C46.5039 157.555 45.8359 157.699 45.2578 157.988C44.6875 158.277 44.207 158.688 43.8164 159.219C43.4336 159.75 43.1445 160.387 42.9492 161.129C42.7539 161.871 42.6562 162.695 42.6562 163.602V165.324C42.6562 166.16 42.7422 166.945 42.9141 167.68C43.0938 168.414 43.3633 169.059 43.7227 169.613C44.082 170.168 44.5391 170.605 45.0938 170.926C45.6484 171.238 46.3047 171.395 47.0625 171.395C48.0234 171.395 48.7891 171.242 49.3594 170.938C49.9297 170.633 50.3594 170.195 50.6484 169.625C50.9453 169.055 51.1562 168.371 51.2812 167.574ZM63.7617 170.832V164.305C63.7617 163.805 63.6602 163.371 63.457 163.004C63.2617 162.629 62.9648 162.34 62.5664 162.137C62.168 161.934 61.6758 161.832 61.0898 161.832C60.543 161.832 60.0625 161.926 59.6484 162.113C59.2422 162.301 58.9219 162.547 58.6875 162.852C58.4609 163.156 58.3477 163.484 58.3477 163.836H56.1797C56.1797 163.383 56.2969 162.934 56.5312 162.488C56.7656 162.043 57.1016 161.641 57.5391 161.281C57.9844 160.914 58.5156 160.625 59.1328 160.414C59.7578 160.195 60.4531 160.086 61.2188 160.086C62.1406 160.086 62.9531 160.242 63.6562 160.555C64.3672 160.867 64.9219 161.34 65.3203 161.973C65.7266 162.598 65.9297 163.383 65.9297 164.328V170.234C65.9297 170.656 65.9648 171.105 66.0352 171.582C66.1133 172.059 66.2266 172.469 66.375 172.812V173H64.1133C64.0039 172.75 63.918 172.418 63.8555 172.004C63.793 171.582 63.7617 171.191 63.7617 170.832ZM64.1367 165.312L64.1602 166.836H61.9688C61.3516 166.836 60.8008 166.887 60.3164 166.988C59.832 167.082 59.4258 167.227 59.0977 167.422C58.7695 167.617 58.5195 167.863 58.3477 168.16C58.1758 168.449 58.0898 168.789 58.0898 169.18C58.0898 169.578 58.1797 169.941 58.3594 170.27C58.5391 170.598 58.8086 170.859 59.168 171.055C59.5352 171.242 59.9844 171.336 60.5156 171.336C61.1797 171.336 61.7656 171.195 62.2734 170.914C62.7812 170.633 63.1836 170.289 63.4805 169.883C63.7852 169.477 63.9492 169.082 63.9727 168.699L64.8984 169.742C64.8438 170.07 64.6953 170.434 64.4531 170.832C64.2109 171.23 63.8867 171.613 63.4805 171.98C63.082 172.34 62.6055 172.641 62.0508 172.883C61.5039 173.117 60.8867 173.234 60.1992 173.234C59.3398 173.234 58.5859 173.066 57.9375 172.73C57.2969 172.395 56.7969 171.945 56.4375 171.383C56.0859 170.812 55.9102 170.176 55.9102 169.473C55.9102 168.793 56.043 168.195 56.3086 167.68C56.5742 167.156 56.957 166.723 57.457 166.379C57.957 166.027 58.5586 165.762 59.2617 165.582C59.9648 165.402 60.75 165.312 61.6172 165.312H64.1367ZM71.5195 155V173H69.3398V155H71.5195ZM79.2656 160.32L73.7344 166.238L70.6406 169.449L70.4648 167.141L72.6797 164.492L76.6172 160.32H79.2656ZM77.2852 173L72.7617 166.953L73.8867 165.02L79.8398 173H77.2852ZM86.5312 173.234C85.6484 173.234 84.8477 173.086 84.1289 172.789C83.418 172.484 82.8047 172.059 82.2891 171.512C81.7812 170.965 81.3906 170.316 81.1172 169.566C80.8438 168.816 80.707 167.996 80.707 167.105V166.613C80.707 165.582 80.8594 164.664 81.1641 163.859C81.4688 163.047 81.8828 162.359 82.4062 161.797C82.9297 161.234 83.5234 160.809 84.1875 160.52C84.8516 160.23 85.5391 160.086 86.25 160.086C87.1562 160.086 87.9375 160.242 88.5938 160.555C89.2578 160.867 89.8008 161.305 90.2227 161.867C90.6445 162.422 90.957 163.078 91.1602 163.836C91.3633 164.586 91.4648 165.406 91.4648 166.297V167.27H81.9961V165.5H89.2969V165.336C89.2656 164.773 89.1484 164.227 88.9453 163.695C88.75 163.164 88.4375 162.727 88.0078 162.383C87.5781 162.039 86.9922 161.867 86.25 161.867C85.7578 161.867 85.3047 161.973 84.8906 162.184C84.4766 162.387 84.1211 162.691 83.8242 163.098C83.5273 163.504 83.2969 164 83.1328 164.586C82.9688 165.172 82.8867 165.848 82.8867 166.613V167.105C82.8867 167.707 82.9688 168.273 83.1328 168.805C83.3047 169.328 83.5508 169.789 83.8711 170.188C84.1992 170.586 84.5938 170.898 85.0547 171.125C85.5234 171.352 86.0547 171.465 86.6484 171.465C87.4141 171.465 88.0625 171.309 88.5938 170.996C89.125 170.684 89.5898 170.266 89.9883 169.742L91.3008 170.785C91.0273 171.199 90.6797 171.594 90.2578 171.969C89.8359 172.344 89.3164 172.648 88.6992 172.883C88.0898 173.117 87.3672 173.234 86.5312 173.234ZM101.379 169.637C101.379 169.324 101.309 169.035 101.168 168.77C101.035 168.496 100.758 168.25 100.336 168.031C99.9219 167.805 99.2969 167.609 98.4609 167.445C97.7578 167.297 97.1211 167.121 96.5508 166.918C95.9883 166.715 95.5078 166.469 95.1094 166.18C94.7188 165.891 94.418 165.551 94.207 165.16C93.9961 164.77 93.8906 164.312 93.8906 163.789C93.8906 163.289 94 162.816 94.2188 162.371C94.4453 161.926 94.7617 161.531 95.168 161.188C95.582 160.844 96.0781 160.574 96.6562 160.379C97.2344 160.184 97.8789 160.086 98.5898 160.086C99.6055 160.086 100.473 160.266 101.191 160.625C101.91 160.984 102.461 161.465 102.844 162.066C103.227 162.66 103.418 163.32 103.418 164.047H101.25C101.25 163.695 101.145 163.355 100.934 163.027C100.73 162.691 100.43 162.414 100.031 162.195C99.6406 161.977 99.1602 161.867 98.5898 161.867C97.9883 161.867 97.5 161.961 97.125 162.148C96.7578 162.328 96.4883 162.559 96.3164 162.84C96.1523 163.121 96.0703 163.418 96.0703 163.73C96.0703 163.965 96.1094 164.176 96.1875 164.363C96.2734 164.543 96.4219 164.711 96.6328 164.867C96.8438 165.016 97.1406 165.156 97.5234 165.289C97.9062 165.422 98.3945 165.555 98.9883 165.688C100.027 165.922 100.883 166.203 101.555 166.531C102.227 166.859 102.727 167.262 103.055 167.738C103.383 168.215 103.547 168.793 103.547 169.473C103.547 170.027 103.43 170.535 103.195 170.996C102.969 171.457 102.637 171.855 102.199 172.191C101.77 172.52 101.254 172.777 100.652 172.965C100.059 173.145 99.3906 173.234 98.6484 173.234C97.5312 173.234 96.5859 173.035 95.8125 172.637C95.0391 172.238 94.4531 171.723 94.0547 171.09C93.6562 170.457 93.457 169.789 93.457 169.086H95.6367C95.668 169.68 95.8398 170.152 96.1523 170.504C96.4648 170.848 96.8477 171.094 97.3008 171.242C97.7539 171.383 98.2031 171.453 98.6484 171.453C99.2422 171.453 99.7383 171.375 100.137 171.219C100.543 171.062 100.852 170.848 101.062 170.574C101.273 170.301 101.379 169.988 101.379 169.637Z" fill="white"/>
<circle cx="72" cy="72" r="62" fill="white"/>
<g opacity="0.45" clip-path="url(#clip0_20_56)">
<path d="M42.6243 45.8275C43.212 44.7004 44.1605 44.2342 45.207 43.7935C47.6659 42.7637 50.0887 41.6622 52.6972 41.0372C52.9394 40.9808 53.1766 40.6888 53.3106 40.448C54.29 38.7368 55.852 38.2705 57.6975 38.2705C58.6254 38.2705 59.5533 38.1476 60.476 38.0297C62.239 37.8094 63.9969 37.5789 65.7547 37.3022C69.2601 36.7489 72.7603 37.0716 76.2657 37.3022C76.9926 37.3483 77.7349 37.3791 78.4566 37.3073C80.4361 37.1126 82.2816 37.7018 84.1528 38.1783C85.2354 38.455 85.9674 38.9724 85.7148 40.2277C85.921 40.3045 86.0705 40.4223 86.2045 40.4019C88.5706 40.0176 90.7254 40.9706 92.9575 41.4368C93.5143 41.5546 94.1432 41.6981 94.6587 41.5495C96.2 41.114 97.7001 41.4829 99.1744 41.7391C99.927 41.8723 100.731 42.3949 101.262 42.9687C101.994 43.7577 102.443 44.7977 103.108 45.6636C103.958 46.7702 104.855 47.8564 105.824 48.8606C106.778 49.8443 107.319 50.9304 107.474 52.2984C107.546 52.9234 107.912 53.569 108.314 54.0813C108.881 54.8088 109.593 55.4288 110.258 56.0743C111.077 56.8633 111.448 57.8009 111.701 58.928C112.459 62.2685 111.68 65.3579 110.144 68.2219C109.16 70.0612 107.69 71.6699 106.005 72.9764C105.402 73.4477 105.154 73.9755 105.02 74.6569C104.324 78.233 103.639 81.8091 102.907 85.3801C102.278 88.4337 101.556 91.4667 100.943 94.5203C100.633 96.047 100.494 97.6045 100.242 99.1416C99.958 100.894 98.9064 102.205 97.5558 103.23C96.1845 104.27 94.7051 105.187 92.9781 105.582C90.0707 106.243 87.1943 107.057 84.2559 107.508C81.2093 107.974 78.1163 108.164 75.0079 107.826C72.4098 107.544 69.7704 107.549 67.193 107.144C64.5691 106.734 61.9761 106.063 59.4141 105.351C56.95 104.665 54.5323 103.794 52.1043 102.989C50.032 102.298 48.2639 101.119 46.7535 99.5668C46.3669 99.1723 46.0163 98.6548 45.8668 98.1323C44.8152 94.428 43.9337 90.6726 42.7687 87.0094C41.913 84.3093 41.6397 81.5171 40.9696 78.7914C40.8098 78.1408 40.5675 77.5106 40.3561 76.8702C40.1139 76.1273 39.6499 75.3844 39.6602 74.6517C39.6808 73.5041 39.119 72.8278 38.3766 72.1208C37.2013 71.009 36.0517 69.8665 34.9383 68.6932C33.8196 67.5149 33.2474 66.0444 33.0928 64.4664C32.866 62.2275 32.9588 59.9988 33.7578 57.8368C34.3506 56.228 34.8249 54.5783 35.3455 52.9439C35.4022 52.7646 35.4486 52.5341 35.3868 52.3701C34.9434 51.161 35.4177 50.1978 36.1858 49.2961C36.825 48.5481 37.4178 47.7539 38.088 47.0315C38.8818 46.1708 39.7582 45.4535 41.083 45.7148C41.5366 45.8019 42.0161 45.7865 42.6243 45.8275ZM85.7096 97.7326L85.6735 97.7685C86.2097 97.748 86.4623 98.0195 86.4004 98.5268C86.2406 99.864 86.0756 101.201 85.8591 102.528C85.7921 102.928 85.5447 103.292 85.3797 103.676C85.2921 103.645 85.2044 103.614 85.1116 103.584C85.1787 103.035 85.2457 102.487 85.3127 101.939C84.1889 102.83 84.4209 104.034 84.1889 105.187C85.0549 105.187 85.8179 105.187 86.7148 105.187C86.7973 104.342 86.8128 103.563 86.9623 102.815C87.0912 102.185 86.3128 101.319 87.4933 100.786C87.5912 101.452 87.6737 101.995 87.7613 102.6C88.4985 102.543 89.1738 102.497 90.0398 102.436C89.648 103.245 89.0965 103.266 88.6067 103.379C88.0345 103.512 87.4778 103.645 87.6737 104.455C89.2923 104.168 90.612 103.061 91.9884 100.832C91.2306 100.965 90.5502 101.078 89.8697 101.196C89.8439 101.094 89.8181 100.991 89.7924 100.894C90.2718 100.755 90.7512 100.602 91.2358 100.474C92.3802 100.171 93.5349 99.905 94.669 99.5668C95.1948 99.408 95.834 99.2543 95.669 98.3269C94.1896 98.5319 92.7152 98.7368 91.2409 98.9418C91.5193 98.6087 91.8337 98.4294 92.174 98.3782C93.8287 98.1169 95.4061 97.6968 96.8856 96.8565C97.6279 96.4364 98.1898 96.0624 98.0094 94.9506C97.4114 95.3759 96.8856 95.7499 96.0144 96.3647C96.2722 94.9916 96.4578 94.0028 96.664 92.9166C96.2928 93.0037 96.0144 93.0652 95.633 93.1523C96.3495 94.6074 95.3237 95.6935 95.2309 96.8565C94.2257 97.0359 93.3596 97.1793 92.4987 97.3433C91.5193 97.5226 90.545 97.7173 89.5707 97.9068C89.1377 97.9939 88.7665 97.9786 88.55 97.3638C88.8284 97.2613 89.0501 97.1383 89.282 97.1025C90.7306 96.877 92.1791 96.6567 93.6277 96.4672C94.3648 96.3698 94.6484 96.0522 94.3288 95.2068C93.7617 95.2068 93.174 95.2068 92.6482 95.2068C92.875 93.8235 93.0864 92.5529 93.3029 91.231C91.5038 91.0927 92.3544 92.8603 91.3389 93.2907C91.3956 92.6758 91.4523 92.1174 91.5244 91.3335C90.7409 91.5794 90.179 91.7536 89.6016 91.9381C89.1222 91.0671 90.2666 89.8272 88.7098 89.2124C89.9161 88.654 90.0759 87.8394 89.8336 86.7942C89.447 86.8352 89.1377 86.8403 88.8387 86.9069C87.4623 87.2194 86.0911 87.5627 84.7147 87.8701C84.3229 87.9572 83.8693 88.0853 83.6837 87.491C84.5498 87.2809 85.4055 87.0606 86.2612 86.8608C87.0241 86.6815 87.1582 86.2716 86.7922 85.6312C86.0602 85.7593 86.0602 85.7593 85.2096 85.3801C86.8798 85.3443 87.1891 84.4067 87.1582 83.1873C87.153 82.9363 87.3077 82.6801 87.385 82.4291C87.5087 82.4393 87.6273 82.4444 87.751 82.4547C87.8129 83.1771 87.8696 83.8995 87.9314 84.6321C89.0294 84.4067 89.0552 84.4118 89.1325 83.7048C89.2459 82.6186 89.3026 81.5222 89.4212 80.4361C89.4521 80.1543 89.6274 79.8879 89.7357 79.6163C89.8645 79.6471 89.9934 79.6727 90.1171 79.7034C90.045 81.1841 89.9728 82.6647 89.9058 84.1505C90.777 83.961 90.8131 83.961 90.9058 83.3103C91.076 82.1268 91.2203 80.9381 91.3389 79.7444C91.3749 79.4114 91.2822 79.063 91.2461 78.689C88.55 79.1245 86.1272 80.3028 83.4002 80.1901C81.266 80.103 79.1216 80.3541 76.9823 80.4104C75.4925 80.4514 74.0078 80.4207 72.4871 80.4207C72.3737 81.0919 72.6366 81.3531 73.2501 81.266C73.7398 81.1994 74.2553 80.9894 74.5233 81.5273C73.714 81.8399 72.9562 82.1319 72.0902 82.4649C71.8891 82.26 71.7757 81.6401 70.9973 81.6708C69.2549 81.7425 67.5074 81.6913 65.8114 81.6913C65.3526 82.47 66.2238 83.4589 65.1567 84.2018C65.131 83.6177 65.1567 83.2027 65.0794 82.8082C64.9969 82.3778 64.8062 81.968 64.6825 81.5376C64.5897 81.2199 64.5381 80.892 64.4711 80.5949C62.77 80.5078 61.0482 80.3233 59.3316 80.3643C57.6872 80.4002 56.0479 80.6871 54.3261 80.4873C54.3777 81.471 54.4189 82.2651 54.4602 83.0644C54.3725 83.0746 54.2849 83.0849 54.1973 83.0951C54.0271 82.301 53.857 81.5068 53.6921 80.723C53.3054 80.5232 52.9188 80.3233 52.3518 80.0313C52.8673 79.8981 53.1508 79.8213 53.522 79.7239C53.4601 79.273 53.4034 78.8529 53.3312 78.3508C53.0219 78.7095 52.857 79.0066 52.6044 79.1655C51.5373 79.8264 51.527 79.811 51.8724 81.2609C52.2487 81.3429 52.6611 81.4095 53.058 81.5222C53.1663 81.553 53.2281 81.7271 53.4137 81.9731C52.8363 81.9731 52.4033 81.9731 51.8672 81.9731C52.0115 83.7048 52.1456 85.334 52.2951 87.1221C51.8724 86.5636 51.6404 85.913 51.2795 85.8361C50.3104 85.6261 49.3 85.1701 48.2948 85.6619C48.1814 86.8403 48.666 87.4756 49.7794 87.7318C50.2022 87.8291 50.8259 87.7984 50.9857 88.5003C50.0166 88.7411 49.1402 87.5781 48.2948 88.5361C48.0371 88.0699 47.5576 87.5934 47.6556 87.3014C48.0268 86.1281 47.5009 85.0574 47.4391 83.9456C47.403 83.2898 47.0525 82.6494 46.8153 81.9321C47.7587 82.1114 48.5423 82.2549 49.3258 82.4034C49.398 82.2907 49.4701 82.178 49.5372 82.0704C49.2794 81.7579 49.0784 81.2712 48.7536 81.1585C47.7329 80.8152 46.6658 80.6103 45.2379 80.2619C45.5163 80.9074 45.6503 81.2507 45.8101 81.5735C45.9132 81.7733 46.2122 81.9884 46.171 82.1217C45.8514 83.1668 46.3875 84.0532 46.6504 84.9856C46.8823 85.8054 47.0576 86.6149 47.0267 87.4756C46.805 87.4654 46.6401 87.491 46.6246 87.45C46.4854 87.1375 46.3462 86.8147 46.2586 86.4817C45.9699 85.3545 45.7173 85.2469 44.3564 85.8566C44.8874 86.5431 45.4029 87.2041 45.9081 87.8599C45.1812 88.4747 45.1245 89.0639 45.872 89.4635C46.4596 89.7811 47.1349 89.9502 47.7845 90.1603C49.1815 90.6162 50.5836 91.0569 51.9858 91.5026C51.96 91.5948 51.9342 91.6922 51.9033 91.7844C51.2692 91.6922 50.6352 91.5948 49.6351 91.4514C50.1403 92.2711 50.4702 92.8091 50.764 93.2855C50.6094 93.8235 50.4496 94.3614 50.2589 95.0224C49.6454 94.1565 49.5062 92.7732 48.0268 93.1011C47.7175 94.4229 48.9392 94.5305 49.8568 95.2427C49.1608 95.1966 48.7742 95.1709 48.3824 95.1453C48.5319 97.5431 49.0217 98.081 51.0991 98.163C51.063 97.6558 51.0321 97.1434 50.996 96.6362C51.1249 96.6157 51.2538 96.5952 51.3826 96.5747C51.728 97.5636 52.0889 98.5524 52.4033 99.5514C52.4549 99.7154 52.2848 99.9511 52.2384 100.084C51.594 99.6385 51.2383 99.3977 50.8826 99.1518C50.8156 99.2389 50.7486 99.3311 50.6816 99.4182C51.1404 99.7615 51.5888 100.12 52.0683 100.438C52.491 100.72 52.9394 100.96 53.3776 101.222C53.1302 101.222 52.8827 101.222 52.6353 101.222C52.6095 101.314 52.5889 101.406 52.5631 101.493C53.2178 101.693 53.8673 101.893 54.522 102.093C55.5582 103.179 56.8572 103.727 58.2903 104.137C62.1669 105.254 66.0537 106.299 70.09 106.688C70.6983 106.745 71.3118 106.699 72.0644 106.699C72.1572 104.911 72.2448 103.204 72.3273 101.503C72.4665 101.503 72.6005 101.498 72.7397 101.498C72.8428 103.256 72.9459 105.013 73.049 106.806C77.5287 107.206 81.9826 107.067 86.7252 106.161C86.287 106.012 86.189 105.951 86.0963 105.951C84.1683 105.997 82.2403 106.058 80.3124 106.089C80.168 106.089 80.0134 105.91 79.7556 105.74C80.2608 105.592 80.5856 105.5 80.9516 105.392C80.7918 104.168 81.6166 102.882 80.4361 102.041C80.7351 101.637 81.0805 101.329 81.2145 100.95C81.3743 100.51 81.3176 99.9716 82.1115 100.217C82.1115 100.694 82.1115 101.17 82.1115 101.652C83.8641 101.601 83.8641 101.601 83.9621 100.484C83.5755 100.351 83.1888 100.223 82.8022 100.089C82.8125 99.9869 82.8177 99.8845 82.828 99.7769C83.7095 99.5771 84.591 99.3824 85.524 99.1723C85.6014 98.6497 85.6581 98.1937 85.7096 97.7326ZM89.813 72.3462L89.7769 72.377C90.411 72.5204 91.045 72.669 91.5915 72.792C91.7616 72.3411 91.8904 71.9978 92.0142 71.6546C92.1173 71.6597 92.2204 71.6648 92.3286 71.6699C92.4369 72.3104 92.6173 72.9457 92.6379 73.5912C92.6534 74.0523 92.4626 74.498 91.8234 74.5288C91.4729 74.5442 91.0811 74.6159 90.8027 74.8003C90.5914 74.9387 90.5244 75.2973 90.3955 75.5535C90.4728 75.6252 90.5502 75.6969 90.6275 75.7686C91.5966 75.3127 92.5709 74.8567 93.6174 74.3648C93.6174 73.0276 93.6174 71.6494 93.6174 70.2712C94.4937 71.4138 94.0091 72.751 94.3184 73.955C95.7309 73.7654 95.7721 73.7347 95.7309 72.6126C95.7154 72.1976 95.6175 71.7878 95.6175 71.3779C95.6175 71.1269 95.7361 70.8809 95.8237 70.5377C96.8134 71.301 95.901 72.546 96.8031 73.2787C97.2516 72.4231 96.8444 71.1935 98.1177 70.9424C98.0455 71.4547 97.9682 71.9671 97.896 72.4743C98.0042 72.4794 98.1125 72.4794 98.2208 72.4846C98.1847 71.9773 98.1537 71.465 98.1177 70.9578C98.061 70.0919 97.2671 69.5847 96.7877 69.1851C95.6948 68.2782 94.3081 67.6993 93.0091 67.0538C92.1173 66.608 91.2976 66.1674 90.7564 65.2452C89.4521 63.0319 88.3335 60.6803 85.8076 59.425C84.5137 58.7795 83.2043 58.303 81.8073 58.3184C80.4052 58.3389 79.0082 58.6668 77.6163 58.8871C76.9977 58.9844 76.5853 59.2816 76.5956 60.0245C76.6059 60.9774 75.8533 61.9918 74.5594 62.7142C75.0801 61.4334 75.477 60.3421 75.9564 59.2918C76.5235 58.0571 77.8586 58.0519 79.0494 57.6831C78.4463 56.9504 77.9462 56.3356 77.4204 55.6952C77.7143 55.5415 77.8174 55.4441 77.8947 55.4595C78.0957 55.4902 78.3019 55.5466 78.472 55.644C80.0392 56.5201 81.6527 57.1912 83.5136 57.0939C83.8899 57.0734 84.2817 57.3808 84.6683 57.5396C86.0705 58.1134 87.4314 58.8307 88.8851 59.215C89.6893 59.4301 90.3955 59.7734 91.1275 60.0962C92.6018 60.7469 94.0452 61.4744 95.5144 62.1455C95.7361 62.248 96.0608 62.3095 96.2773 62.2275C97.8032 61.6588 99.1435 62.5708 100.566 62.7603C100.876 62.8013 101.175 63.2676 101.391 63.5955C101.556 63.8465 101.499 64.2513 101.68 64.4716C102.963 66.0496 102.489 67.8069 102.273 69.5488C102.19 70.2149 102.097 70.8912 102.128 71.5521C102.144 71.8236 102.484 72.0747 102.901 72.6434C103.659 70.4608 103.056 68.391 104.046 66.6131C103.963 68.6523 103.881 70.6914 103.788 72.9508C104.216 72.7305 104.546 72.6741 104.639 72.4948C105.577 70.6196 105.716 68.5549 106.103 66.5209C106.938 68.1553 105.886 69.7743 105.938 71.3369C106.536 70.8758 107.103 70.4916 107.603 70.0304C107.969 69.6974 108.232 69.3644 108.129 68.7035C107.969 67.6634 107.959 66.5517 108.433 65.4143C109.598 66.3006 108.288 67.4944 109.072 68.5959C109.5 66.2289 109.33 64.1129 108.943 61.9713C110.268 63.0216 109.598 64.6406 110.237 65.9061C110.443 65.3015 110.593 64.697 110.572 64.1027C110.526 62.7757 110.319 61.4283 110.629 60.1372C111.196 57.7804 109.701 56.3459 108.242 55.0906C107.159 54.1582 106.536 53.2667 106.407 51.8578C106.17 49.2243 103.592 47.9691 101.437 49.4754C100.917 49.8391 100.53 49.9928 100.077 49.7572C99.5404 49.4805 99.1177 49.5983 98.6125 49.7777C98.1073 49.9519 97.5094 50.2746 97.0764 49.5983C97.6846 48.0101 97.6795 48.0101 97.1176 46.3706C96.8495 45.5867 96.5712 44.8029 96.3237 44.0087C96.1742 43.5169 95.9113 43.2248 95.3855 43.0865C94.2927 42.7894 93.2359 42.3539 92.1327 42.0977C90.0192 41.6059 87.9727 40.6119 85.6993 41.196C84.8436 41.4163 83.9466 41.4983 83.1012 41.7493C81.6372 42.1797 80.4412 41.4983 79.2144 40.9398C78.2555 40.5043 78.1937 39.5667 77.9978 38.706C77.9669 38.5626 77.8431 38.4447 77.7555 38.3013C72.4923 37.5123 67.2497 37.4815 61.9813 38.5779C62.0792 38.788 62.1565 38.9212 62.2029 39.0698C62.7184 40.7759 62.0998 41.7544 60.3575 42.0516C59.8935 42.1284 59.445 42.2924 58.9914 42.4051C57.7439 42.7176 56.5479 42.7176 55.2901 42.2873C54.3364 41.9645 53.1869 41.7134 52.2487 41.9337C50.4341 42.359 48.7021 43.1326 46.9391 43.7782C46.4957 43.937 46.0936 44.2085 45.6452 44.3315C44.1708 44.7311 43.5058 45.7251 43.0677 47.1442C42.6862 48.379 42.4027 49.7982 41.0314 50.5103C39.9644 51.0636 38.9179 51.658 37.8611 52.2369C37.6859 52.2984 37.5054 52.3547 37.3302 52.4162C36.593 52.739 35.9796 53.154 36.0053 54.0608C36.4177 54.0916 36.7734 54.1172 37.4333 54.1633C36.593 54.8447 36.0157 55.3109 35.4744 55.7515C36.0827 57.0734 36.6497 58.303 37.2168 59.5275C36.3198 59.507 36.325 60.0859 36.5312 60.711C36.1806 60.7469 35.9435 60.7725 35.4744 60.8186C35.928 61.3053 36.2528 61.6588 36.5776 62.0072C37.2219 63.078 37.758 64.2922 39.3664 64.0514C38.9385 66.8693 38.9385 66.8693 39.4592 67.1665C39.6345 66.9052 39.8097 66.649 40.1448 66.152C40.2479 67.0333 40.3149 67.5968 40.4025 68.309C41.0521 68.0426 41.5109 67.853 41.8253 67.7198C43.0264 68.3551 44.0832 68.9135 45.1297 69.4617C45.4957 68.9904 45.207 68.186 46.1864 68.1399C46.0679 68.7855 45.9648 69.3542 45.8617 69.9331C45.0266 69.7743 44.2894 69.6359 43.3718 69.4669C43.4491 70.4915 43.511 71.3062 43.5935 72.4384C43.9389 71.7109 43.5935 71.009 44.5317 70.8758C44.5575 71.301 44.5626 71.6955 44.6193 72.0798C44.6348 72.2028 44.7843 72.3052 44.8771 72.4282C45.109 72.1362 45.3049 71.8851 45.6039 71.506C45.7225 72.1515 45.805 72.587 45.8874 73.0379C46.6246 73.1916 47.3566 73.1967 47.9185 73.5041C48.4185 73.7808 48.733 74.4007 49.1815 74.9284C49.4392 74.4827 49.5784 74.247 49.7743 73.9089C50.3053 74.5595 50.5372 75.4407 51.5167 75.0719C52.1301 73.499 52.3105 73.376 53.924 73.873C55.1355 74.247 56.3056 74.3956 57.5222 73.54C57.8057 74.4058 58.0326 75.1129 58.2955 75.9172C58.5584 75.7686 58.8728 75.6611 58.8677 75.5791C58.7955 74.7952 58.6666 74.0164 58.5378 73.084C60.0636 73.3248 61.6978 73.1967 63.0587 74.2624C62.6102 74.2624 62.1565 74.2624 61.6462 74.2624C61.8421 75.0565 62.0483 75.6713 63.0277 75.4049C63.0277 75.0155 63.0277 74.621 63.0277 74.2316C63.6773 73.7295 64.3474 73.5963 65.1567 73.914C65.863 74.1906 66.6259 74.3187 67.1878 74.4673C67.1878 73.8986 67.1775 73.3811 67.193 72.8688C67.2084 72.3104 66.5331 71.7673 67.1723 71.0756C67.7291 71.921 68.2291 72.6844 68.7498 73.4836C68.6776 73.5707 68.5436 73.7244 68.3838 73.9089C69.3477 74.3905 70.1725 74.8054 70.9922 75.2153C70.9612 75.3024 70.9252 75.3895 70.8942 75.4766C70.1004 75.2409 69.3013 75.0053 68.559 74.785C68.8993 76.0094 69.2137 77.1366 69.5746 78.4328C70.0282 78.484 70.6055 78.5455 71.1777 78.607C71.2396 78.4789 71.3015 78.3508 71.3582 78.2228C71.0283 77.9 70.6983 77.5772 70.3839 77.2698C70.6416 76.8855 70.8942 76.5064 71.2241 76.0197C71.5283 76.4808 71.7706 76.8497 71.9768 77.1571C72.7191 77.0546 73.4614 76.7216 73.9872 76.9317C75.178 77.4081 76.3637 77.1981 77.5545 77.2544C77.8174 77.2647 78.0751 77.2954 78.338 77.3159C78.338 77.3774 78.3432 77.444 78.3432 77.5055C77.7916 77.695 77.2452 77.8897 76.6472 78.0947C77.374 79.0579 77.4771 79.0732 78.9772 78.525C79.003 78.0793 79.0288 77.6182 79.0546 77.1622C79.137 77.152 79.2247 77.1468 79.3071 77.1366C79.5443 77.6182 79.7762 78.1049 79.9979 78.5506C80.5907 78.5506 81.1062 78.5506 81.4104 78.5506C81.2403 77.8385 81.0701 77.1417 80.9 76.4449C81.0083 76.4039 81.1114 76.363 81.2145 76.322C81.4671 76.6652 81.7197 77.0136 81.9929 77.3928C82.6218 77.2134 83.4157 77.3364 83.2868 76.3527C82.7455 76.0351 82.0135 76.8138 81.7145 75.8404C82.2197 75.6149 82.7301 75.3895 83.3023 75.1385C83.3023 74.3085 83.3023 73.499 83.3023 72.792C84.3539 72.6844 85.2869 72.5819 86.2251 72.4846C86.2612 72.6075 86.2921 72.7305 86.3282 72.8534C85.7921 73.1147 85.2508 73.3606 84.725 73.6424C84.1734 73.9396 83.5188 74.2111 84.1013 75.0258C84.5858 75.1077 85.0653 75.1897 85.6839 75.2973C85.0807 75.6252 84.127 76.4603 84.0652 76.7472C84.89 76.5064 85.6684 76.2759 86.4416 76.0504C86.8076 76.2759 85.9828 77.3313 87.0499 76.9419C87.5809 76.3937 86.6581 75.492 87.6479 74.9335C87.751 75.2614 87.8438 75.4869 87.8902 75.7225C87.9469 76.0197 87.9675 76.322 88.0242 76.7831C88.5861 76.5115 89.2459 76.4039 89.4367 76.0453C89.6532 75.6457 89.4418 75.0206 89.4161 74.4622C89.6944 74.2777 90.0192 74.0574 90.4419 73.7756C89.8285 73.6219 89.38 73.5092 88.7459 73.3453C89.2202 72.8893 89.514 72.6178 89.813 72.3462ZM97.7723 90.3908C97.8135 89.7401 98.0042 88.8743 97.8496 88.8077C96.9836 88.4337 97.4269 87.6242 97.2155 87.1836C96.3598 86.6712 95.6278 87.8906 94.8236 87.1887C95.0762 86.6866 95.303 86.2306 95.7 85.4416C93.906 85.8259 92.4987 86.1333 91.0347 86.4458C90.9265 87.0299 90.8388 87.5166 90.746 88.0136C91.509 88.1826 91.8544 87.9265 91.9832 87.3116C92.0812 86.8505 92.308 86.5585 92.9524 86.7993C92.7719 88.0033 92.5967 89.1817 92.4317 90.2935C93.6174 90.7597 93.2617 89.3098 94.1329 89.279C94.2824 89.5045 94.4628 89.776 94.6484 90.0578C95.0917 89.9553 95.5711 89.6018 96.133 90.2166C95.4422 90.5035 94.8855 90.7341 94.2514 91.0005C94.1483 91.4565 94.0452 91.9432 93.9473 92.3684C94.9577 93.1267 95.0711 91.9534 95.5969 91.7383C95.8856 92.2404 96.1845 92.5529 96.7 92.102C97.0712 91.7793 97.3496 91.4975 98.0042 91.6973C98.7414 91.9227 98.9115 91.5948 98.9528 90.3754C98.5713 90.3908 98.1847 90.3908 97.7723 90.3908ZM93.9267 75.4356C92.0966 76.1836 90.3388 76.947 88.55 77.6131C86.7612 78.2791 84.7456 78.2996 82.9208 79.4524C84.6786 79.5753 86.189 79.5907 87.7046 78.9708C89.5243 78.2279 91.4368 77.7002 93.3184 77.1007C94.1999 76.8189 94.2257 76.2656 93.9267 75.4356ZM65.6207 81.0765C67.5332 81.1226 69.291 81.1789 71.054 81.1892C71.652 81.1943 71.884 80.8767 71.6417 80.3336C70.8375 79.8879 69.8375 80.4719 69.0539 79.729C69.3941 79.5548 69.5952 79.4524 69.9663 79.2577C69.1879 78.9656 68.5436 78.73 67.8167 78.4584C67.8425 78.9708 67.8528 79.2372 67.8734 79.6266C67.0641 79.6266 66.3527 79.6266 65.6207 79.6266C65.6207 80.103 65.6207 80.4566 65.6207 81.0765ZM50.1145 83.0439C49.3722 83.0439 48.7227 83.0439 47.9958 83.0439C47.9804 83.6535 47.7948 84.3196 48.5371 84.4938C49.5114 84.7192 50.4754 85.2111 51.5321 84.919C51.4239 82.2395 51.1868 81.6452 50.1197 81.5427C50.1145 82.0397 50.1145 82.5367 50.1145 83.0439ZM101.669 45.4689C100.618 42.692 98.0558 41.3651 96.0557 42.2719C96.5196 42.8201 97.0042 43.3888 97.5506 44.0241C98.2104 44.0241 99.0146 44.0241 99.9374 44.0241C100.443 44.4442 101.056 44.9566 101.669 45.4689ZM55.0014 39.4796C55.3159 39.7973 55.5066 40.0791 55.7747 40.2482C56.6974 40.8322 57.749 40.5402 58.7439 40.5863C59.5017 40.6222 60.1409 39.8895 60.3523 38.9314C58.6202 39.3054 56.8366 38.5472 55.0014 39.4796ZM92.4317 82.593C92.3647 82.5059 92.2977 82.4188 92.2255 82.3317C92.7771 82.1217 93.3596 81.968 93.8751 81.6964C94.5659 81.3275 94.5092 80.7486 94.205 80.103C93.7926 80.144 93.4318 80.2055 93.0709 80.2106C92.3235 80.226 91.9111 80.6154 91.8183 81.3224C91.7152 82.1114 91.6636 82.9107 91.5708 83.9456C92.5554 83.3718 93.6792 83.6689 94.2875 82.4239C93.5297 82.4957 92.9833 82.5418 92.4317 82.593ZM93.7308 83.9917C91.9162 84.4169 90.1635 84.8268 88.4108 85.2367C87.7562 85.3904 87.617 85.7695 87.8541 86.4458C89.6377 86.0872 91.3595 85.749 93.0761 85.3955C93.7617 85.252 94.0401 84.8524 93.7308 83.9917ZM83.8745 102.339C81.5753 101.949 81.4207 103.02 81.8022 105.53C82.3434 105.5 82.895 105.464 83.5652 105.423C83.6734 104.337 83.7765 103.333 83.8745 102.339ZM58.0738 78.9656C58.0583 79.1142 58.0429 79.2628 58.0274 79.4114C59.677 79.6522 61.3214 79.934 62.9865 79.8827C63.1102 79.4677 63.1978 79.1655 63.2958 78.8222C62.2493 78.9349 61.2493 77.7411 60.3162 79.0476C60.1255 78.5199 59.9966 78.151 59.878 77.8283C59.2234 77.8283 58.6821 77.8283 58.1408 77.8283C58.1305 77.9205 58.1202 78.0178 58.1099 78.11C58.5687 78.2381 59.0275 78.3662 59.4811 78.4943C59.4811 78.566 59.4811 78.6429 59.4811 78.7146C59.012 78.8068 58.5429 78.8888 58.0738 78.9656ZM39.3148 69.8511C39.4231 69.7845 39.5365 69.7128 39.6448 69.6462C39.4592 69.0724 39.4334 68.3295 39.0468 67.9657C38.1653 67.1255 37.1034 66.4646 35.9744 65.6294C35.9486 66.2391 36.0878 66.8283 35.8713 67.2126C35.3249 68.1758 35.9177 68.4627 36.526 68.9392C36.8559 68.2526 36.1033 67.2638 37.3302 67.1409C37.4694 67.5866 37.5209 68.2629 37.722 68.309C38.5725 68.5037 38.9334 69.1646 39.3148 69.8511ZM68.3013 77.28C68.0332 75.1385 67.3888 74.3802 65.7908 74.6364C65.0949 74.7491 64.4969 74.8567 63.8061 74.5237C63.9814 74.9899 64.1464 75.5842 64.466 75.6764C65.0227 75.8352 65.6671 75.6918 66.43 75.6713C66.7496 76.3066 66.8785 77.444 68.3013 77.28ZM96.5402 76.8958C95.0762 77.3518 93.7514 77.7668 92.4214 78.1818C92.4214 78.7505 92.4214 79.2218 92.4214 79.8366C93.1122 79.6009 93.7565 79.5446 94.138 79.2013C94.5349 78.8427 94.6793 78.2074 95.0298 77.4952C95.3752 78.0024 95.5659 78.2791 95.7464 78.5404C96.7104 78.4687 96.8444 77.9358 96.5402 76.8958ZM96.7722 82.1524C97.7207 82.1883 98.1641 81.9526 98.2723 81.2456C98.3599 80.682 98.6383 80.0877 98.5352 79.5702C98.4012 78.9093 98.4527 78.3406 98.7311 77.7309C96.6485 78.5865 97.4114 80.559 96.7722 82.1524ZM37.2941 49.3063C39.753 49.8494 40.2118 47.7437 41.2119 46.4423C38.8715 45.9351 38.6086 48.3073 37.2941 49.3063ZM95.0247 82.8799C95.3597 82.716 95.8649 82.6442 96.0093 82.3778C96.5042 81.4659 96.5145 80.4617 96.3804 79.3653C95.9268 79.5036 95.5969 79.6061 95.2566 79.7085C95.1793 80.7691 95.1072 81.7476 95.0247 82.8799ZM97.5455 94.1872C99.6796 93.7876 99.7208 93.7569 100.02 92.061C99.7982 92.1635 99.6332 92.2455 99.4631 92.3121C99.2517 92.3992 99.0352 92.5478 98.8187 92.5529C97.4681 92.5887 97.4011 92.6605 97.5455 94.1872ZM97.9063 74.3034C95.2824 74.5288 94.8236 74.9387 95.1587 76.4296C96.6794 76.6294 96.8495 75.2051 97.9063 74.3034ZM56.5325 74.6979C55.7386 74.6979 55.0221 74.6979 54.1663 74.6979C54.4756 75.2409 54.7179 75.6713 54.9705 76.117C55.5221 76.0453 55.9757 75.9838 56.4087 75.9275C56.4551 75.4612 56.4964 75.077 56.5325 74.6979ZM54.29 77.8078C54.29 78.6634 54.29 79.2935 54.29 80.0825C54.8829 80.0108 55.3468 79.9596 55.7953 79.9083C55.8262 78.8119 55.4602 78.1408 54.29 77.8078ZM81.199 38.8392C82.6166 40.2379 82.6166 40.2379 84.6374 39.4438C83.725 37.9734 82.4259 39.3362 81.199 38.8392ZM41.7892 68.6266C41.8459 69.7282 40.9438 71.1269 42.6707 71.7109C42.1398 70.7426 43.1605 69.3593 41.7892 68.6266ZM47.9082 75.9428C47.7484 74.8772 47.0215 74.4109 46.0782 74.0216C46.0885 76.1017 46.0885 76.1017 47.9082 75.9428ZM100.144 84.3862C99.2621 85.1035 99.0559 86.2511 99.6023 87.3424C100.19 86.3997 100.309 85.7336 100.144 84.3862ZM61.0431 75.4356C60.9245 74.9028 60.8214 74.4673 60.7131 73.9755C60.3008 74.0267 59.9657 74.0677 59.5378 74.1189C59.6718 74.7337 59.7801 75.2256 59.9038 75.784C60.3162 75.6611 60.6049 75.5688 61.0431 75.4356ZM47.5731 90.6162C47.6195 91.769 47.6195 91.769 48.9753 92.266C49.032 91.1286 49.032 91.1286 47.5731 90.6162ZM97.8805 82.8543C96.4938 83.2539 96.4938 83.2539 96.6124 84.4682C97.7929 84.1249 97.7929 84.1249 97.8805 82.8543ZM91.6997 90.4882C91.6636 89.9656 91.6327 89.5045 91.6018 89.028C90.4264 89.2073 90.3285 89.8938 90.3852 90.8263C90.8543 90.7033 91.2306 90.606 91.6997 90.4882ZM44.2172 83.3615C44.4337 84.6116 44.4337 84.6116 45.7019 84.6629C45.6555 83.7253 45.2121 83.2437 44.2172 83.3615ZM34.9898 59.5531C34.8197 59.5172 34.6547 59.4763 34.4846 59.4404C33.8196 60.3267 33.9537 61.3463 34.232 62.3863C34.4846 61.4436 34.7372 60.4958 34.9898 59.5531ZM95.7412 83.6945C94.6174 83.7919 94.6174 83.7919 94.6587 84.9242C95.7257 84.9037 95.7257 84.9037 95.7412 83.6945ZM47.1246 93.8235C47.1916 92.3941 47.1916 92.3941 45.8514 92.2404C45.9287 93.0703 46.171 93.7108 47.1246 93.8235ZM75.8688 79.0732C75.6265 77.9615 75.6265 77.9615 74.446 78.2023C74.3945 79.2116 74.9924 79.2372 75.8688 79.0732ZM45.2688 78.7146C45.4183 79.9852 46.4803 79.729 47.1968 79.9852C46.604 79.5395 46.4287 78.4892 45.2688 78.7146ZM49.0114 80.5334C49.1763 79.5753 48.9546 79.0681 47.934 78.9503C47.9494 79.7239 47.9649 80.3438 49.0114 80.5334ZM72.2139 77.8539C72.5026 78.9451 72.5026 78.9451 73.6315 78.6787C73.5439 77.8795 72.9304 77.9205 72.2139 77.8539ZM97.5351 97.3586C96.2567 98.1425 96.2412 98.2245 96.9939 99.3721C97.1588 98.7522 97.3032 98.2142 97.5351 97.3586ZM96.1278 86.4356C96.6588 86.0513 97.5919 86.3485 97.3496 85.3186C96.5248 85.1086 96.0814 85.3545 96.1278 86.4356ZM99.6745 72.4743C100.107 72.3052 100.51 72.1464 101.061 71.9312C100.309 71.7109 99.7569 71.5521 99.128 71.3676C99.3394 71.8031 99.5043 72.131 99.6745 72.4743ZM37.5931 66.1469C38.5983 65.3528 38.5828 65.1683 37.4848 64.697C37.5209 65.1888 37.557 65.6294 37.5931 66.1469ZM36.6806 63.2368C35.9435 63.7901 36.0002 64.2256 36.8765 64.779C36.7889 64.0976 36.7322 63.6672 36.6806 63.2368ZM56.1665 79.7803C56.45 79.9083 56.749 80.144 56.883 80.0723C57.084 79.9698 57.249 79.6573 57.2799 79.4165C57.2954 79.2884 56.9861 79.1245 56.8211 78.9759C56.682 79.1501 56.5376 79.3243 56.1665 79.7803ZM84.7405 101.437C85.689 100.668 85.689 100.668 85.091 99.8793C84.9673 100.417 84.8797 100.817 84.7405 101.437ZM94.7772 93.3778C94.0349 93.265 93.6638 93.5007 93.6328 94.3409C94.3597 94.3717 94.9164 94.3666 94.7772 93.3778ZM98.4424 46.0325C98.6435 47.1852 98.6435 47.1852 99.6074 47.1135C99.2002 46.7344 98.8239 46.3809 98.4424 46.0325ZM44.5935 80.0262C44.4956 79.9698 44.3976 79.9135 44.2997 79.8571C44.1347 80.0723 43.9698 80.2875 43.7223 80.6103C44.0987 80.7845 44.3564 80.9023 44.7637 81.0867C44.6915 80.641 44.6399 80.3336 44.5935 80.0262ZM95.5814 100.023C94.6638 100.038 94.4989 100.34 94.5917 100.822C94.6071 100.894 94.7205 100.945 94.9164 101.124C95.1072 100.807 95.2773 100.525 95.5814 100.023ZM96.5609 65.4706C96.5402 65.8702 96.5248 66.2135 96.5042 66.6797C97.2052 65.8805 97.2052 65.8805 96.5609 65.4706ZM99.3909 67.1562C99.3652 67.2792 99.3394 67.4073 99.3085 67.5302C99.6538 67.602 100.004 67.6737 100.489 67.771C100.247 66.8898 99.8446 66.9564 99.3909 67.1562ZM78.8844 79.6112C78.8844 79.6573 78.8844 79.7034 78.8844 79.7495C79.3896 79.7495 79.8897 79.7495 80.3948 79.7495C80.3948 79.7034 80.3948 79.6573 80.3948 79.6112C79.8948 79.6112 79.3896 79.6112 78.8844 79.6112ZM50.0784 80.7588C50.4032 80.8818 50.6506 80.974 51.0991 81.1431C50.9342 80.6717 50.8414 80.4156 50.7022 80.0211C50.4444 80.3233 50.2898 80.5078 50.0784 80.7588ZM35.2476 64.9378C35.129 64.9327 35.0053 64.9275 34.8867 64.9224C34.9434 65.4143 35.0001 65.9061 35.0568 66.4031C35.1548 66.3928 35.2476 66.3826 35.3455 66.3723C35.3094 65.8907 35.2785 65.4143 35.2476 64.9378ZM36.4848 59.0971C36.0724 58.6565 35.7785 58.3491 35.4899 58.0366C35.3404 58.7897 35.4435 59.2969 36.4848 59.0971ZM35.294 61.7818C35.2115 62.3556 35.1548 62.745 35.0981 63.1395C35.7528 62.8116 36.093 62.4529 35.294 61.7818ZM99.5301 88.4644C99.4116 88.4439 99.2981 88.4183 99.1796 88.3978C99.1177 88.7103 99.061 89.0229 98.9992 89.3354C99.1074 89.3559 99.2157 89.3764 99.3239 89.3969C99.3909 89.0895 99.4579 88.7769 99.5301 88.4644ZM99.0249 94.4742C98.8239 94.7559 98.6177 94.925 98.6383 95.0582C98.6641 95.2222 98.8806 95.3554 99.0146 95.504C99.1332 95.3656 99.3291 95.2324 99.3445 95.0838C99.3549 94.9353 99.1899 94.7662 99.0249 94.4742ZM47.2587 94.7559C46.8617 95.4476 47.1504 95.7396 47.9649 96.0265C47.6453 95.4527 47.4545 95.1043 47.2587 94.7559ZM46.0782 90.2883C45.9802 90.3652 45.8874 90.4472 45.7895 90.524C45.8617 90.7085 45.8977 90.9134 46.0163 91.0671C46.1143 91.1952 46.2998 91.2567 46.4493 91.3438C46.5318 91.272 46.6091 91.2003 46.6916 91.1286C46.4803 90.8519 46.2792 90.5701 46.0782 90.2883ZM40.2943 69.9587C40.4283 69.9331 40.5675 69.9075 40.7015 69.8767C40.6139 69.595 40.5211 69.3183 40.4335 69.0365C40.3458 69.057 40.253 69.0775 40.1654 69.098C40.2118 69.3849 40.253 69.6718 40.2943 69.9587ZM99.9734 76.614C100.04 76.6806 100.102 76.7523 100.169 76.8241C100.427 76.5833 100.685 76.3425 100.948 76.1017C100.891 76.0402 100.829 75.9736 100.772 75.9121C100.504 76.1478 100.236 76.3835 99.9734 76.614ZM101.324 68.1809C101.407 68.1758 101.489 68.1655 101.577 68.1604C101.613 68.0221 101.69 67.8837 101.68 67.7505C101.664 67.5815 101.582 67.4226 101.525 67.2587C101.412 67.2843 101.298 67.3048 101.185 67.3304C101.231 67.6122 101.278 67.8991 101.324 68.1809ZM99.9477 78.3969C99.494 78.7402 99.2724 79.1142 99.7776 79.5907C99.8343 79.1962 99.891 78.7966 99.9477 78.3969ZM98.6692 83.7202C98.7723 83.7406 98.8754 83.7663 98.9837 83.7868C99.0662 83.4332 99.1487 83.0797 99.2311 82.7262C99.1177 82.7006 99.0095 82.6801 98.8961 82.6545C98.8187 83.008 98.7466 83.3615 98.6692 83.7202ZM98.7569 84.8012C98.6641 84.7909 98.5661 84.7756 98.4734 84.7653C98.4476 85.001 98.4218 85.2418 98.3909 85.4775C98.4785 85.4877 98.561 85.498 98.6486 85.5082C98.6847 85.2777 98.7208 85.042 98.7569 84.8012ZM95.7928 66.5824C95.7618 66.2955 95.7309 66.0137 95.6897 65.6243C94.9834 66.0137 95.0917 66.316 95.7928 66.5824ZM53.0168 75.6969C53.29 75.8865 53.4601 76.0248 53.6457 76.1222C53.7024 76.1529 53.8261 76.0556 53.9137 76.0197C53.7746 75.8301 53.6508 75.6303 53.491 75.4612C53.4653 75.4305 53.2745 75.5637 53.0168 75.6969ZM94.9113 102.041C94.8133 101.965 94.7154 101.888 94.6174 101.806C94.4989 102.026 94.3803 102.246 94.2617 102.467C94.3339 102.513 94.4112 102.554 94.4886 102.6C94.6277 102.415 94.7721 102.231 94.9113 102.041ZM100.551 78.9247C100.638 78.9964 100.721 79.0732 100.809 79.145C100.979 78.899 101.149 78.6582 101.314 78.4123C101.252 78.3713 101.185 78.3303 101.123 78.2842C100.932 78.4994 100.742 78.7095 100.551 78.9247ZM93.4936 100.422C93.3493 100.673 93.2204 100.807 93.1947 100.965C93.1792 101.058 93.3287 101.176 93.4009 101.278C93.5246 101.15 93.6792 101.037 93.7462 100.889C93.7823 100.817 93.638 100.668 93.4936 100.422ZM45.1451 74.621C45.2276 74.5083 45.3152 74.3956 45.3977 74.2829C45.1812 74.1599 44.9699 74.0318 44.7533 73.9089C44.6966 73.996 44.6451 74.0779 44.5884 74.165C44.7791 74.3187 44.9595 74.4724 45.1451 74.621ZM44.7018 81.7528C44.5987 81.8296 44.5007 81.9065 44.3976 81.9833C44.5626 82.1831 44.7276 82.3778 44.8925 82.5725C44.9595 82.5264 45.0214 82.4854 45.0884 82.4393C44.9595 82.2139 44.8307 81.9833 44.7018 81.7528Z" fill="#F68B1F"/>
<path d="M37.8405 52.237C38.2375 52.2011 38.6344 52.1652 39.0674 52.1243C37.9849 53.0926 37.8405 53.1131 37.3096 52.4163C37.4848 52.3548 37.6652 52.2933 37.8405 52.237Z" fill="#F68B1F"/>
<path d="M47.5886 51.1867C48.2948 49.4294 48.9495 47.8514 49.5732 46.258C49.9599 45.264 50.8775 44.516 51.9136 44.5724C53.6147 44.6595 55.2179 45.1308 56.5892 46.1606C57.8624 47.1187 57.8624 48.2305 56.6407 49.2705C55.6561 50.1108 54.7334 51.074 53.6199 51.6888C52.8106 52.1396 51.7383 52.1499 50.7744 52.2985C49.7434 52.4573 48.7948 52.2728 48.0731 51.4121C47.9546 51.284 47.7123 51.2482 47.5886 51.1867ZM53.7642 45.8225C51.094 44.6082 50.0939 46.0428 49.7743 48.8248C51.0682 48.3022 52.4085 47.754 53.6199 47.2622C53.6818 46.6883 53.723 46.258 53.7642 45.8225ZM51.8981 49.1271C52.1559 49.3064 52.259 49.4396 52.3621 49.4396C52.5013 49.4396 52.6353 49.3371 52.7745 49.2757C52.7126 49.1578 52.6508 48.9478 52.5837 48.9426C52.4136 48.9375 52.2384 49.0246 51.8981 49.1271Z" fill="#F68B1F"/>
<path d="M79.5701 49.7521C78.8793 50.5821 78.3793 51.2482 77.8122 51.8527C76.9101 52.8159 75.941 53.4615 74.5027 52.7852C73.7243 52.4214 72.7861 52.3958 71.9974 52.0474C71.1674 51.6785 70.5179 51.0945 70.8066 49.9724C70.9509 49.4191 70.2344 48.7326 70.9097 48.251C71.5798 47.7745 72.3067 47.257 73.0799 47.088C74.1779 46.8472 75.3636 46.7345 76.4719 46.883C78.5906 47.1751 79.1319 47.8155 79.5701 49.7521ZM77.7813 48.5635C77.7967 48.4149 77.8122 48.2663 77.8225 48.1178C76.5389 47.3544 75.1265 47.4978 73.781 47.9026C73.0335 48.1229 72.2603 48.6147 72.1933 49.7163C72.9871 49.6445 73.7037 49.9571 74.4666 49.4755C74.281 49.332 74.1728 49.2552 74.0748 49.1629C73.9563 49.0502 73.8532 48.9273 73.5181 48.5635C75.1522 48.5635 76.4668 48.5635 77.7813 48.5635Z" fill="#F68B1F"/>
<path d="M69.0127 68.0324C70.5591 66.5108 72.085 65.0301 74.5079 65.1992C74.7553 65.2145 75.0182 65.1428 75.2656 65.0711C76.9719 64.5587 78.1112 65.4195 78.1163 67.2332C78.1163 67.6481 78.1473 68.0631 78.1318 68.4781C78.0906 69.7385 77.3483 70.7119 76.1007 70.7324C74.3893 70.758 72.6675 70.6197 70.9664 70.3994C69.7962 70.2508 69.2498 69.344 69.0127 68.0324ZM76.8379 66.6696C75.0801 66.2546 73.6006 66.1111 72.2809 67.5457C73.0748 67.6686 73.7295 67.8223 74.3893 67.848C75.1058 67.8787 75.8275 67.7916 76.5492 67.7557C76.6472 67.4022 76.7193 67.1102 76.8379 66.6696ZM71.2138 66.854C71.3015 66.9719 71.3839 67.0948 71.4716 67.2127C71.6932 67.0333 71.9149 66.854 72.1314 66.6747C72.0644 66.5876 71.9974 66.5005 71.9304 66.4134C71.6932 66.562 71.4561 66.7054 71.2138 66.854Z" fill="#F68B1F"/>
<path d="M45.0884 61.454C45.7173 60.8955 46.305 60.3934 46.872 59.8708C47.5834 59.215 48.4495 59.0665 49.3567 59.1536C50.4496 59.2612 51.0527 60.0553 51.2847 61.208C51.6765 63.1088 51.3517 64.82 50.1815 66.3571C49.8619 66.7772 49.398 67.0897 48.934 67.5098C47.1607 65.609 45.0678 64.1745 45.0884 61.454ZM50.264 62.161C50.6661 61.0697 50.5888 60.665 49.831 60.1014C49.2743 59.6864 48.1041 59.6915 47.4752 60.1065C46.8153 60.5471 46.7483 61.0595 47.3514 61.9612C47.6865 62.4581 48.0525 62.9859 48.8412 62.4274C49.1969 62.1815 49.764 62.2481 50.264 62.161Z" fill="#F68B1F"/>
<path d="M58.847 50.2184C59.0893 49.6906 59.3368 49.1629 59.6151 48.5584C59.0584 48.2612 58.5481 47.9897 58.0377 47.7181C58.0686 47.6106 58.0944 47.503 58.1253 47.4005C58.7285 47.5081 59.3265 47.6208 60.0224 47.7438C60.3265 47.2263 61.0843 46.7908 59.9914 45.9916C60.5688 45.8788 60.9245 45.8686 61.2235 45.7405C61.7854 45.4946 62.3473 44.9003 62.8576 44.9515C63.7443 45.0386 64.5948 45.51 65.7186 45.9096C64.6825 46.6012 63.9247 46.0889 63.337 45.843C62.6514 45.5561 62.4246 45.7405 62.1205 46.3195C62.4091 46.4629 62.6669 46.6166 62.9401 46.7345C63.8319 47.1085 64.7289 47.4722 65.7496 47.8923C65.4196 48.4457 65.0588 49.0502 64.6619 49.706C65.198 49.9007 65.7186 50.0852 66.2651 50.2798C65.8578 50.6077 65.8887 50.4387 63.2236 49.9417C62.1308 49.7368 61.3884 48.9478 60.208 48.8094C59.8883 49.3166 59.543 49.8546 59.2027 50.3977C59.0842 50.3362 58.9656 50.2747 58.847 50.2184ZM62.8834 49.0758C63.2752 49.2398 63.5432 49.3576 63.8783 49.496C64.1721 49.1015 64.435 48.7479 64.7134 48.3791C63.5999 47.877 63.5999 47.877 62.8834 49.0758ZM60.9245 48.1741C61.0688 48.2407 61.2132 48.3073 61.3575 48.3739C61.5586 47.9846 61.7596 47.5952 62.105 46.9343C61.0895 47.2212 60.708 47.5132 60.9245 48.1741Z" fill="#F68B1F"/>
<path d="M78.2555 76.1376C76.6266 76.1376 74.9976 76.1684 73.3686 76.112C73.0438 76.1017 72.7294 75.7482 72.2912 75.4767C74.5027 74.3649 76.3637 75.241 78.2555 75.7124C78.2555 75.8558 78.2555 75.9942 78.2555 76.1376Z" fill="#F68B1F"/>
<path d="M61.94 52.8108C60.6874 52.5188 59.4347 52.2319 57.981 51.8937C58.2748 51.5863 58.5223 51.2123 58.6151 51.2482C59.7079 51.6427 60.775 52.0935 61.8472 52.5444C61.9039 52.57 61.8988 52.7288 61.9246 52.821L61.94 52.8108Z" fill="#F68B1F"/>
<path d="M55.7901 72.9047C54.3313 72.8689 52.8518 73.2941 51.2692 72.6896C52.2074 72.208 53.6972 72.2848 55.7901 72.9047Z" fill="#F68B1F"/>
<path d="M73.0181 73.8065C71.9871 73.8987 70.9097 74.242 69.8529 73.1148C71.1417 73.0994 72.1314 73.1917 73.0181 73.8065Z" fill="#F68B1F"/>
<path d="M47.7587 70.6966C48.7433 70.3431 49.6299 70.6248 50.4651 71.3524C49.5423 71.2806 48.6196 71.2038 47.702 71.1321C47.7175 70.9886 47.7381 70.8452 47.7587 70.6966Z" fill="#F68B1F"/>
<path d="M41.9593 65.65C40.8304 65.399 40.0365 65.1377 39.6241 63.9081C40.6603 64.2718 41.3871 64.6202 41.9593 65.65Z" fill="#F68B1F"/>
<path d="M43.011 66.2187C43.7223 66.7259 44.4337 67.2383 45.1451 67.7455C45.0884 67.8275 45.0266 67.9094 44.9699 67.9914C44.2533 67.4432 43.078 67.5252 42.6089 66.6337C42.7377 66.4903 42.8769 66.3519 43.011 66.2187Z" fill="#F68B1F"/>
<path d="M89.2769 55.516C88.8748 55.7875 88.6222 56.1 88.4263 56.0642C88.1428 56.0129 87.9005 55.7209 87.6376 55.5262C87.8747 55.3008 88.0964 54.9268 88.349 54.9011C88.5913 54.8807 88.8696 55.229 89.2769 55.516Z" fill="#F68B1F"/>
<path d="M36.5208 62.038C36.7322 61.1927 36.9436 60.3473 37.1549 59.502C37.3405 59.5481 37.5261 59.5942 37.7116 59.6403C37.5106 60.4088 37.325 61.1824 37.0827 61.9407C37.057 62.0227 36.7167 62.0073 36.5208 62.038Z" fill="#F68B1F"/>
<path d="M49.6145 72.9662C48.7742 73.1097 47.9185 73.3659 47.2277 72.3207C48.0216 72.4232 48.8155 72.5256 49.6093 72.6281C49.6093 72.7408 49.6145 72.8535 49.6145 72.9662Z" fill="#F68B1F"/>
<path d="M57.5686 57.7754C57.8779 58.2262 58.1614 58.467 58.1872 58.7334C58.2027 58.9076 57.847 59.1177 57.6562 59.3124C57.4552 59.1075 57.1407 58.9333 57.084 58.6976C57.0376 58.508 57.3057 58.2416 57.5686 57.7754Z" fill="#F68B1F"/>
<path d="M60.2698 50.3413C61.0946 50.0186 61.6874 50.244 62.3112 50.6692C61.5328 51.0688 61.5328 51.0688 60.2698 50.3413Z" fill="#F68B1F"/>
<path d="M106.747 64.277C107.634 64.9174 107.355 65.5476 107.422 66.0958C106.726 65.7422 106.577 65.2043 106.747 64.277Z" fill="#F68B1F"/>
<path d="M44.542 49.9468C44.2121 50.3516 43.8822 50.7512 43.4801 51.2482C43.1501 50.2132 43.1501 50.2132 44.2791 49.7163C44.3667 49.7931 44.4544 49.87 44.542 49.9468Z" fill="#F68B1F"/>
<path d="M63.8474 60.46C63.4968 59.9784 63.1154 59.5993 63.7443 59.256C63.8989 59.1689 64.3113 59.2458 64.399 59.379C64.7392 59.9067 64.3886 60.1834 63.8474 60.46Z" fill="#F68B1F"/>
<path d="M67.7909 45.3153C67.1208 45.9916 66.7084 45.5202 66.0898 45.0898C66.8269 44.6492 67.3064 44.6441 67.7909 45.3153Z" fill="#F68B1F"/>
<path d="M74.6316 44.1574C74.2604 44.2189 73.8893 44.2803 73.5181 44.3418C73.5026 44.1061 73.3789 43.7834 73.4872 43.645C73.8944 43.1378 74.2656 43.4862 74.6161 43.7219C74.6213 43.8653 74.6264 44.0139 74.6316 44.1574Z" fill="#F68B1F"/>
<path d="M40.5675 54.3786C40.1551 54.5425 39.7479 54.7013 39.0571 54.978C39.4128 53.9072 39.8613 53.7894 40.5675 54.3786Z" fill="#F68B1F"/>
<path d="M44.6966 55.0702C44.1708 55.5826 43.7739 55.9668 43.2584 56.4689C43.578 55.1676 43.578 55.1676 44.6966 55.0702Z" fill="#F68B1F"/>
<path d="M103.288 60.6803C103.551 60.9621 103.819 61.249 104.17 61.6282C103.309 61.746 103.309 61.746 103.005 60.9416C103.103 60.8545 103.195 60.7674 103.288 60.6803Z" fill="#F68B1F"/>
<path d="M44.5935 46.7242C44.8513 47.0162 45.1451 47.2724 45.1142 47.3236C44.9544 47.5747 44.7069 47.7745 44.4904 47.9948C44.3564 47.8104 44.109 47.6157 44.1244 47.4415C44.1347 47.2365 44.3719 47.0419 44.5935 46.7242Z" fill="#F68B1F"/>
<path d="M79.0185 73.622C78.2761 73.9346 77.539 74.2163 76.8998 73.4273C77.606 73.4939 78.3122 73.5554 79.0185 73.622Z" fill="#F68B1F"/>
<path d="M40.4953 61.3105C40.516 60.3319 40.516 60.3319 41.4181 60.3934C41.4026 61.0031 41.0933 61.2695 40.4953 61.3105Z" fill="#F68B1F"/>
<path d="M87.2664 63.7902C87.6221 64.2001 87.9778 64.6151 88.3335 65.025C88.2459 65.0967 88.1634 65.1684 88.0758 65.2402C87.7201 64.8303 87.0757 64.651 87.2664 63.7902Z" fill="#F68B1F"/>
<path d="M54.7798 70.0152C55.2231 70.0766 55.6716 70.1381 56.1149 70.1996C56.1046 70.3277 56.0891 70.4506 56.0788 70.5787C55.6355 70.548 55.1922 70.5224 54.7488 70.4916C54.7592 70.3328 54.7695 70.174 54.7798 70.0152Z" fill="#F68B1F"/>
<path d="M89.813 72.3463C88.8078 72.0748 89.1428 71.4856 89.416 70.7068C90.0037 71.3011 89.8645 71.8442 89.7769 72.377L89.813 72.3463Z" fill="#F68B1F"/>
<path d="M78.936 44.5673C79.2298 44.4033 79.4257 44.2291 79.6319 44.2086C79.7453 44.1984 79.8845 44.4545 80.0134 44.5878C79.802 44.7517 79.601 44.9413 79.369 45.0642C79.3329 45.0796 79.1422 44.8029 78.936 44.5673Z" fill="#F68B1F"/>
<path d="M108.459 59.7735C108.103 60.2039 107.768 60.2295 107.464 59.8094C107.407 59.7325 107.453 59.4661 107.531 59.4149C107.979 59.1331 108.247 59.3636 108.459 59.7735Z" fill="#F68B1F"/>
<path d="M73.4047 58.8154C72.8067 59.0101 72.5851 59.1536 72.3943 59.1228C72.2551 59.1023 72.152 58.8564 72.0283 58.7078C72.2087 58.5695 72.384 58.3287 72.5696 58.3287C72.7655 58.3236 72.9614 58.5439 73.4047 58.8154Z" fill="#F68B1F"/>
<path d="M58.8677 68.4986C59.2697 68.4167 59.677 68.3296 60.0791 68.2476C60.11 68.3654 60.1461 68.4833 60.177 68.6011C59.7801 68.7189 59.378 68.8419 58.9811 68.9597C58.945 68.806 58.9037 68.6523 58.8677 68.4986Z" fill="#F68B1F"/>
<path d="M86.6478 47.3083C86.2045 47.6208 86.0344 47.7899 85.8333 47.8514C85.7663 47.8718 85.6117 47.6208 85.4983 47.4978C85.689 47.3646 85.8694 47.1904 86.0859 47.1085C86.1787 47.0726 86.3488 47.2007 86.6478 47.3083Z" fill="#F68B1F"/>
<path d="M92.2564 49.4908C92.4729 49.6394 92.6946 49.788 92.9008 49.9468C92.9111 49.9571 92.7874 50.1722 92.7719 50.1671C92.5193 50.08 92.2771 49.9673 92.0348 49.8648C92.1069 49.7368 92.1791 49.6138 92.2564 49.4908Z" fill="#F68B1F"/>
<path d="M89.6119 52.9952C89.9573 52.8313 90.179 52.6417 90.2821 52.693C90.4625 52.7852 90.5708 53.0209 90.7048 53.1951C90.5914 53.2822 90.4522 53.4563 90.3749 53.4359C90.1635 53.3641 89.9779 53.2104 89.6119 52.9952Z" fill="#F68B1F"/>
<path d="M63.6927 70.2918C63.6257 70.5838 63.5638 70.881 63.4865 71.173C63.4814 71.1833 63.2185 71.1525 63.2185 71.1321C63.1978 70.8349 63.2082 70.5326 63.2082 70.2355C63.368 70.2508 63.5278 70.2713 63.6927 70.2918Z" fill="#F68B1F"/>
<path d="M84.3487 46.4527C84.5498 46.6474 84.7456 46.8472 84.9415 47.0419C84.8333 47.129 84.658 47.3032 84.6374 47.2878C84.4312 47.129 84.2508 46.9291 84.0652 46.7447C84.158 46.6474 84.2508 46.55 84.3487 46.4527Z" fill="#F68B1F"/>
<path d="M82.3692 68.7907C82.6115 68.6062 82.7661 68.4013 82.9053 68.4064C83.0393 68.4167 83.2816 68.6575 83.2662 68.7702C83.2455 68.9188 83.0393 69.1134 82.8795 69.1493C82.761 69.1698 82.596 68.9597 82.3692 68.7907Z" fill="#F68B1F"/>
<path d="M100.432 53.3744C100.69 53.3385 100.948 53.3026 101.278 53.2565C101.169 54.0865 100.814 53.8816 100.479 53.733C100.463 53.61 100.448 53.4922 100.432 53.3744Z" fill="#F68B1F"/>
<path d="M100.133 58.4004C99.9786 58.4619 99.793 58.6156 99.6796 58.5695C99.525 58.508 99.3342 58.3133 99.3239 58.1647C99.3188 58.0418 99.5507 57.7907 99.6744 57.7959C99.8961 57.8061 100.118 57.9598 100.334 58.052C100.267 58.1699 100.2 58.2877 100.133 58.4004Z" fill="#F68B1F"/>
<path d="M53.8828 56.6995C53.7024 56.4894 53.5168 56.2845 53.3467 56.0641C53.3415 56.0539 53.522 55.8695 53.5374 55.8797C53.7591 56.0437 53.9704 56.223 54.1818 56.3972C54.0838 56.4996 53.9859 56.597 53.8828 56.6995Z" fill="#F68B1F"/>
<path d="M59.5275 71.2396C59.2337 71.2909 58.945 71.3472 58.4862 71.4292C58.7491 70.6709 59.0842 70.6812 59.5275 71.2396Z" fill="#F68B1F"/>
<path d="M78.173 41.9646C77.8586 41.9492 77.5441 41.9338 77.0905 41.9133C77.4874 41.237 77.807 41.2166 78.173 41.9646Z" fill="#F68B1F"/>
<path d="M68.6879 62.658C68.9456 62.5965 69.2034 62.5299 69.4663 62.494C69.4921 62.4889 69.5436 62.7297 69.5849 62.8578C69.3116 62.9193 69.0333 62.9807 68.7601 63.0422C68.7343 62.9141 68.7137 62.7861 68.6879 62.658Z" fill="#F68B1F"/>
<path d="M89.1222 67.0231C89.2202 67.2536 89.3233 67.4791 89.4212 67.7096C89.2923 67.7506 89.1583 67.7967 89.0294 67.8428C88.9727 67.5969 88.916 67.3561 88.8593 67.1102C88.9469 67.0795 89.0346 67.0487 89.1222 67.0231Z" fill="#F68B1F"/>
<path d="M67.9456 43.5426C67.8012 43.6553 67.6724 43.8346 67.5074 43.8705C67.3476 43.9063 67.1569 43.8039 66.93 43.5067C67.2239 43.3991 67.5126 43.2967 67.8064 43.1891C67.8528 43.3069 67.8992 43.4247 67.9456 43.5426Z" fill="#F68B1F"/>
<path d="M105.933 63.3343C105.773 63.1242 105.603 62.9193 105.458 62.6938C105.443 62.6682 105.572 62.5555 105.634 62.4838C105.835 62.6733 106.041 62.8629 106.242 63.0473C106.139 63.1447 106.036 63.242 105.933 63.3343Z" fill="#F68B1F"/>
<path d="M104.149 53.8918C104.396 53.9584 104.639 54.025 104.886 54.0916C104.85 54.2249 104.814 54.3581 104.778 54.4964C104.541 54.3786 104.298 54.2607 104.061 54.1429C104.087 54.0609 104.118 53.9789 104.149 53.8918Z" fill="#F68B1F"/>
<path d="M68.5178 57.7702C68.5848 57.9342 68.7291 58.1135 68.6982 58.2518C68.6673 58.3748 68.4405 58.4517 68.2961 58.5439C68.2343 58.3748 68.1415 58.2057 68.126 58.0315C68.1105 57.8881 68.1827 57.7344 68.2188 57.5858C68.3167 57.6524 68.4147 57.7088 68.5178 57.7702Z" fill="#F68B1F"/>
<path d="M93.3338 46.2529C93.5194 46.4578 93.6328 46.5808 93.7462 46.7037C93.6431 46.7959 93.5349 46.9599 93.4369 46.9548C93.3235 46.9496 93.1689 46.8164 93.1173 46.7037C93.0864 46.6269 93.2153 46.4834 93.3338 46.2529Z" fill="#F68B1F"/>
<path d="M61.9246 52.821C61.9916 53.1387 62.0586 53.4512 62.1462 53.8918C61.4606 53.4461 61.4606 53.4461 61.9349 52.8108C61.94 52.8108 61.9246 52.821 61.9246 52.821Z" fill="#F68B1F"/>
<path d="M79.4412 75.3998C79.3845 75.6355 79.3381 75.8712 79.2659 76.1018C79.2608 76.1171 78.9978 76.0761 78.9978 76.0659C79.003 75.82 79.0236 75.5689 79.0442 75.323C79.1783 75.3486 79.3071 75.3742 79.4412 75.3998Z" fill="#F68B1F"/>
<path d="M84.7096 60.2602C84.8745 60.4498 85.0395 60.6445 85.1993 60.834C85.122 60.8904 84.9828 61.0082 84.9725 60.998C84.7972 60.8289 84.6425 60.6393 84.4776 60.4549C84.5601 60.3883 84.6322 60.3217 84.7096 60.2602Z" fill="#F68B1F"/>
<path d="M91.5347 41.939C91.71 42.3591 91.8234 42.5333 91.844 42.7177C91.8544 42.8048 91.6585 43.0097 91.6327 42.9995C91.4471 42.9124 91.2667 42.7997 91.1275 42.6511C91.0966 42.6204 91.2564 42.4154 91.5347 41.939Z" fill="#F68B1F"/>
<path d="M85.7096 97.7327C85.5653 97.5483 85.2921 97.3587 85.2972 97.1845C85.39 94.9763 85.5189 92.7682 85.6529 90.56C85.6684 90.2782 85.7973 90.0015 85.9519 89.4482C86.6581 90.5651 86.1529 91.5385 86.2715 92.5069C88.1067 92.1277 86.8695 90.4268 87.6582 89.607C88.3747 89.8478 88.1531 90.4473 88.1531 90.9032C88.1479 91.5539 88.1943 92.138 88.983 92.3224C88.6067 92.8399 88.2098 93.2344 88.0036 93.7057C87.7871 94.2078 87.7561 94.7919 87.6324 95.4221C89.1274 95.75 90.5192 94.7355 91.9162 95.4221C90.4367 95.9242 88.9624 96.4263 87.2406 96.2418C87.2406 95.2069 87.2406 94.1873 87.2406 92.8194C86.7561 93.2241 86.3488 93.3881 86.3076 93.6238C86.0499 94.9968 85.8797 96.3853 85.6787 97.7686C85.6735 97.7686 85.7096 97.7327 85.7096 97.7327Z" fill="#F68B1F"/>
<path d="M76.3533 81.2815C78.3432 81.2046 80.333 81.1227 82.328 81.0714C82.462 81.0663 82.6012 81.3071 83.0033 81.6811C81.6475 81.7272 80.5959 81.8502 79.5546 81.7785C78.4978 81.6965 77.3998 82.3318 76.3533 81.2815Z" fill="#F68B1F"/>
<path d="M62.5071 103.671C62.239 103.497 61.8421 103.358 61.8369 103.21C61.7854 101.949 61.806 100.689 61.806 99.4081C62.4761 100.069 62.8164 102.041 62.5071 103.671Z" fill="#F68B1F"/>
<path d="M61.5276 91.7076C62.1101 93.1729 61.9555 94.5357 61.8988 96.1598C61.1926 94.6638 61.0585 92.9731 61.5276 91.7076Z" fill="#F68B1F"/>
<path d="M66.1156 88.4389C66.2135 89.9042 66.3166 91.3643 66.4145 92.8296C65.631 91.7486 65.4557 89.356 66.1156 88.4389Z" fill="#F68B1F"/>
<path d="M59.3161 86.4254C60.0121 87.4347 59.8729 88.5465 59.6718 89.6736C59.1409 88.6541 59.1151 87.5577 59.3161 86.4254Z" fill="#F68B1F"/>
<path d="M85.7302 82.4599C84.6322 83.377 83.4363 82.839 82.1527 83.1259C83.1734 82.3369 84.4106 82.1269 85.7302 82.4599Z" fill="#F68B1F"/>
<path d="M83.5394 98.368C83.5961 97.2306 83.6476 96.0932 83.7043 94.9558C84.1941 95.7602 84.1838 96.8208 83.5394 98.368Z" fill="#F68B1F"/>
<path d="M81.0753 84.3453C80.0495 84.3914 79.0185 84.4375 77.6266 84.499C78.8638 83.8227 80.1216 83.6895 81.0134 83.9815C81.0341 84.1045 81.0547 84.2275 81.0753 84.3453Z" fill="#F68B1F"/>
<path d="M87.8592 100.013C88.6686 99.4849 89.4779 99.5208 90.4058 99.7155C89.3748 100.633 88.7871 100.694 87.8592 100.013Z" fill="#F68B1F"/>
<path d="M67.4662 100.32C68.0074 101.432 68.2136 102.328 67.6827 103.286C67.4919 102.385 66.7857 101.519 67.4662 100.32Z" fill="#F68B1F"/>
<path d="M59.3058 97.9786C59.3058 97.0001 59.3058 96.0164 59.3058 94.7919C60.0791 95.9754 59.8419 96.9693 59.7131 97.9582C59.5739 97.9633 59.4399 97.9684 59.3058 97.9786Z" fill="#F68B1F"/>
<path d="M73.7346 82.5265C74.1986 83.3872 74.3017 84.2582 73.8326 85.411C73.2861 84.2787 73.3325 83.4077 73.7346 82.5265Z" fill="#F68B1F"/>
<path d="M75.7038 95.5501C76.3894 96.3084 76.0956 97.1384 76.0337 98.2451C74.9615 97.2562 75.8172 96.3596 75.7038 95.5501Z" fill="#F68B1F"/>
<path d="M53.2694 96.4724C52.5631 96.2521 51.8569 96.0266 51.1507 95.8063C51.1868 95.6936 51.2228 95.5758 51.2641 95.4631C52.0528 95.4272 52.8518 95.3606 53.2694 96.4724Z" fill="#F68B1F"/>
<path d="M75.276 102.4C75.2399 102.974 75.2038 103.553 75.1522 104.352C74.5646 103.456 74.5646 103.456 75.276 102.4Z" fill="#F68B1F"/>
<path d="M60.775 82.9005C60.7132 82.2549 60.6513 81.6094 60.5894 80.969C60.708 80.9587 60.8317 80.9485 60.9503 80.9382C61.3988 81.5479 61.1565 82.2191 61.1668 82.8698C61.0328 82.88 60.9039 82.8902 60.775 82.9005Z" fill="#F68B1F"/>
<path d="M89.349 93.8441C90.0913 93.219 90.5347 93.1165 91.1275 93.5059C90.6893 94.1054 90.1944 93.9978 89.349 93.8441Z" fill="#F68B1F"/>
<path d="M54.4911 102.129C54.2488 101.908 54.0014 101.688 53.7591 101.468C54.2591 101.565 54.7592 101.657 55.2592 101.755C55.2592 101.811 55.2643 101.872 55.2643 101.929C55.0066 101.995 54.7488 102.062 54.4911 102.129Z" fill="#F68B1F"/>
</g>
<defs>
<clipPath id="clip0_20_56">
<rect width="79" height="71" fill="white" transform="translate(33 37)"/>
</clipPath>
</defs>
</svg>
