<svg width="145" height="200" viewBox="0 0 145 200" fill="none" xmlns="http://www.w3.org/2000/svg">
<path d="M0 72.5C0 32.4594 32.4594 0 72.5 0C112.541 0 145 32.4594 145 72.5V175C145 188.807 133.807 200 120 200H25C11.1929 200 0 188.807 0 175V72.5Z" fill="#F68B1F"/>
<path d="M44.4688 167.844L47.8555 155.938H49.4961L48.5469 160.566L44.9023 173H43.2734L44.4688 167.844ZM40.9648 155.938L43.6602 167.609L44.4688 173H42.8516L38.7148 155.938H40.9648ZM53.8789 167.598L56.5156 155.938H58.7773L54.6523 173H53.0352L53.8789 167.598ZM49.7422 155.938L53.0352 167.844L54.2305 173H52.6016L49.0859 160.566L48.125 155.938H49.7422ZM63.125 155V173H60.957V155H63.125ZM62.6094 166.18L61.707 166.145C61.7148 165.277 61.8438 164.477 62.0938 163.742C62.3438 163 62.6953 162.355 63.1484 161.809C63.6016 161.262 64.1406 160.84 64.7656 160.543C65.3984 160.238 66.0977 160.086 66.8633 160.086C67.4883 160.086 68.0508 160.172 68.5508 160.344C69.0508 160.508 69.4766 160.773 69.8281 161.141C70.1875 161.508 70.4609 161.984 70.6484 162.57C70.8359 163.148 70.9297 163.855 70.9297 164.691V173H68.75V164.668C68.75 164.004 68.6523 163.473 68.457 163.074C68.2617 162.668 67.9766 162.375 67.6016 162.195C67.2266 162.008 66.7656 161.914 66.2188 161.914C65.6797 161.914 65.1875 162.027 64.7422 162.254C64.3047 162.48 63.9258 162.793 63.6055 163.191C63.293 163.59 63.0469 164.047 62.8672 164.562C62.6953 165.07 62.6094 165.609 62.6094 166.18ZM79.4375 173.234C78.5547 173.234 77.7539 173.086 77.0352 172.789C76.3242 172.484 75.7109 172.059 75.1953 171.512C74.6875 170.965 74.2969 170.316 74.0234 169.566C73.75 168.816 73.6133 167.996 73.6133 167.105V166.613C73.6133 165.582 73.7656 164.664 74.0703 163.859C74.375 163.047 74.7891 162.359 75.3125 161.797C75.8359 161.234 76.4297 160.809 77.0938 160.52C77.7578 160.23 78.4453 160.086 79.1562 160.086C80.0625 160.086 80.8438 160.242 81.5 160.555C82.1641 160.867 82.707 161.305 83.1289 161.867C83.5508 162.422 83.8633 163.078 84.0664 163.836C84.2695 164.586 84.3711 165.406 84.3711 166.297V167.27H74.9023V165.5H82.2031V165.336C82.1719 164.773 82.0547 164.227 81.8516 163.695C81.6562 163.164 81.3438 162.727 80.9141 162.383C80.4844 162.039 79.8984 161.867 79.1562 161.867C78.6641 161.867 78.2109 161.973 77.7969 162.184C77.3828 162.387 77.0273 162.691 76.7305 163.098C76.4336 163.504 76.2031 164 76.0391 164.586C75.875 165.172 75.793 165.848 75.793 166.613V167.105C75.793 167.707 75.875 168.273 76.0391 168.805C76.2109 169.328 76.457 169.789 76.7773 170.188C77.1055 170.586 77.5 170.898 77.9609 171.125C78.4297 171.352 78.9609 171.465 79.5547 171.465C80.3203 171.465 80.9688 171.309 81.5 170.996C82.0312 170.684 82.4961 170.266 82.8945 169.742L84.207 170.785C83.9336 171.199 83.5859 171.594 83.1641 171.969C82.7422 172.344 82.2227 172.648 81.6055 172.883C80.9961 173.117 80.2734 173.234 79.4375 173.234ZM94.3789 170.832V164.305C94.3789 163.805 94.2773 163.371 94.0742 163.004C93.8789 162.629 93.582 162.34 93.1836 162.137C92.7852 161.934 92.293 161.832 91.707 161.832C91.1602 161.832 90.6797 161.926 90.2656 162.113C89.8594 162.301 89.5391 162.547 89.3047 162.852C89.0781 163.156 88.9648 163.484 88.9648 163.836H86.7969C86.7969 163.383 86.9141 162.934 87.1484 162.488C87.3828 162.043 87.7188 161.641 88.1562 161.281C88.6016 160.914 89.1328 160.625 89.75 160.414C90.375 160.195 91.0703 160.086 91.8359 160.086C92.7578 160.086 93.5703 160.242 94.2734 160.555C94.9844 160.867 95.5391 161.34 95.9375 161.973C96.3438 162.598 96.5469 163.383 96.5469 164.328V170.234C96.5469 170.656 96.582 171.105 96.6523 171.582C96.7305 172.059 96.8438 172.469 96.9922 172.812V173H94.7305C94.6211 172.75 94.5352 172.418 94.4727 172.004C94.4102 171.582 94.3789 171.191 94.3789 170.832ZM94.7539 165.312L94.7773 166.836H92.5859C91.9688 166.836 91.418 166.887 90.9336 166.988C90.4492 167.082 90.043 167.227 89.7148 167.422C89.3867 167.617 89.1367 167.863 88.9648 168.16C88.793 168.449 88.707 168.789 88.707 169.18C88.707 169.578 88.7969 169.941 88.9766 170.27C89.1562 170.598 89.4258 170.859 89.7852 171.055C90.1523 171.242 90.6016 171.336 91.1328 171.336C91.7969 171.336 92.3828 171.195 92.8906 170.914C93.3984 170.633 93.8008 170.289 94.0977 169.883C94.4023 169.477 94.5664 169.082 94.5898 168.699L95.5156 169.742C95.4609 170.07 95.3125 170.434 95.0703 170.832C94.8281 171.23 94.5039 171.613 94.0977 171.98C93.6992 172.34 93.2227 172.641 92.668 172.883C92.1211 173.117 91.5039 173.234 90.8164 173.234C89.957 173.234 89.2031 173.066 88.5547 172.73C87.9141 172.395 87.4141 171.945 87.0547 171.383C86.7031 170.812 86.5273 170.176 86.5273 169.473C86.5273 168.793 86.6602 168.195 86.9258 167.68C87.1914 167.156 87.5742 166.723 88.0742 166.379C88.5742 166.027 89.1758 165.762 89.8789 165.582C90.582 165.402 91.3672 165.312 92.2344 165.312H94.7539ZM105.266 160.32V161.984H98.4102V160.32H105.266ZM100.73 157.238H102.898V169.859C102.898 170.289 102.965 170.613 103.098 170.832C103.23 171.051 103.402 171.195 103.613 171.266C103.824 171.336 104.051 171.371 104.293 171.371C104.473 171.371 104.66 171.355 104.855 171.324C105.059 171.285 105.211 171.254 105.312 171.23L105.324 173C105.152 173.055 104.926 173.105 104.645 173.152C104.371 173.207 104.039 173.234 103.648 173.234C103.117 173.234 102.629 173.129 102.184 172.918C101.738 172.707 101.383 172.355 101.117 171.863C100.859 171.363 100.73 170.691 100.73 169.848V157.238Z" fill="white"/>
<circle cx="72" cy="72" r="62" fill="white"/>
<g opacity="0.45" clip-path="url(#clip0_20_55)">
<path d="M116.224 105.006C116.46 105.372 116.698 105.742 117.031 106.264C116.646 106.071 116.377 105.947 116.122 105.804C114.153 104.723 112.481 103.239 110.698 101.903C107.457 99.4768 104.647 96.5619 101.531 93.993C100.863 93.4396 100.211 92.8555 99.5463 92.2987C99.1764 91.9889 98.7792 91.9429 98.3373 92.1911C96.8837 93.0063 95.2768 93.1922 93.6493 93.3778C92.0012 93.5631 90.5017 93.1022 89.052 92.498C87.9297 92.0281 86.9065 91.3125 85.8479 90.6926C84.6088 89.9641 83.3875 89.1912 82.1275 88.4967C81.6336 88.2266 81.0591 88.1098 80.5125 87.9453C74.446 86.0942 68.5914 83.7451 63.1215 80.5058C60.0581 78.6919 56.9702 76.9222 53.9872 74.9823C51.9328 73.6471 50.0322 72.0738 48.0756 70.589C47.172 69.9058 46.2893 69.1954 45.4067 68.4782C45.1793 68.2936 45.0109 68.0447 44.8461 67.7923C55.097 75.3492 65.8954 81.8911 77.8684 86.3251C77.9175 86.2365 77.97 86.1515 78.0226 86.0595C76.2796 85.0505 74.5332 84.038 72.7867 83.0324C72.3577 82.787 71.7242 82.7209 71.8485 81.8207C72.5512 81.8328 73.2678 81.8383 74.327 81.8548C73.8265 81.5709 73.6124 81.4208 73.377 81.3184C70.6082 80.0841 68.3941 78.0784 66.1451 76.1133C65.7347 75.7551 65.2312 75.4334 64.7121 75.2693C61.7781 74.3587 58.9431 73.2093 56.119 72.0017C53.6872 70.967 51.3183 69.8302 48.9952 68.5946C46.747 67.401 44.5445 66.1154 42.3138 64.8912C41.3535 64.365 40.3581 63.8932 39.3872 63.3841C39.2101 63.2927 39.0679 63.1401 38.9896 62.8237C39.1639 62.8636 39.3524 62.8693 39.5127 62.9433C41.8991 64.0494 44.2891 65.1453 46.6614 66.2787C47.3329 66.5991 47.9271 67.0693 48.5881 67.4066C50.6188 68.4466 52.6283 69.5344 54.7083 70.4585C57.3136 71.6153 59.9753 72.6426 62.6264 73.6937C63.2542 73.9415 63.9315 74.0664 64.5876 74.246C64.6127 74.1606 64.6411 74.0786 64.6696 73.9899C64.3494 73.8213 64.0257 73.6562 63.7056 73.4808C62.0879 72.6001 60.4945 71.689 59.0936 70.4613C58.3033 69.7692 57.3703 69.2502 56.5417 68.6022C56.2564 68.3792 56.0449 68.0166 55.9189 67.6722C55.8791 67.562 56.2148 67.309 56.4582 67.0308C55.212 66.3297 53.9414 65.6591 52.7162 64.917C51.8212 64.3745 50.9509 63.774 50.1187 63.1362C49.633 62.7634 49.1619 62.5998 48.5515 62.606C47.7662 62.6134 46.9608 62.5931 46.2052 62.4158C41.4422 61.3454 36.9334 59.6884 33.0487 56.6368C31.5648 55.4698 30.1123 54.2586 28.6597 53.0543C28.5511 52.9638 28.5435 52.7477 28.4872 52.5859L28.4597 52.5924C28.8984 52.8824 29.3441 53.1657 29.7792 53.4659C31.7342 54.8033 33.6507 56.2054 35.6511 57.4713C38.3761 59.1954 41.2951 60.4933 44.49 61.0951C45.181 61.2271 45.843 61.4821 46.5375 61.6039C47.1533 61.7144 47.7877 61.7119 48.4296 61.6547C46.3615 60.3125 44.3447 58.9881 42.7592 57.1615C41.958 56.2361 40.9674 55.665 39.988 55.0083C37.873 53.5832 35.7964 52.1003 33.7337 50.6039C31.2054 48.7691 28.691 46.9208 26.2115 45.0249C24.8087 43.9549 23.4962 42.79 22.1454 41.6693C22.1977 41.6048 22.25 41.5334 22.3023 41.4621C23.3011 42.2082 24.2825 42.9781 25.3023 43.6901C26.7471 44.692 28.2339 45.6259 29.6752 46.6312C31.4734 47.8912 33.2402 49.1954 35.021 50.4792C36.6624 51.6619 38.269 52.8921 39.9488 54.0169C41.224 54.8727 42.7677 55.0872 44.2408 55.4655C43.1983 54.3691 42.2115 53.2117 41.0926 52.1967C40.3908 51.5537 39.5048 51.1107 38.6882 50.6C35.5172 48.6133 32.5345 46.3751 29.6462 43.9907C28.0577 42.6819 26.3614 41.5054 24.7172 40.2645C24.3708 39.9996 24.0279 39.7245 23.7233 39.3984C25.7538 40.4522 27.6095 41.778 29.4233 43.1582C30.6088 44.0609 31.707 45.0894 32.9133 45.965C33.977 46.7359 35.1419 47.3606 36.2439 48.0737C37.2338 48.7134 38.206 49.3906 39.1819 50.0507C39.2547 49.9864 39.324 49.9256 39.3968 49.8613C39.2936 49.6098 39.2146 49.3482 39.0873 49.1066C38.6752 48.33 38.232 47.5702 37.8371 46.7836C37.5593 46.235 37.58 46.2216 37.7692 45.3461C39.2184 46.2693 40.1768 47.7863 41.8706 48.3422C43.4414 48.8553 44.9303 49.6178 46.664 49.7215C45.4569 48.9077 44.2741 48.0633 43.0459 47.2904C39.4294 45.0135 35.5773 43.2035 31.6446 41.5399C30.4065 41.0137 29.2885 40.201 28.1034 39.5418C27.1601 39.0192 26.0945 38.6906 25.5726 37.9127C28.5288 39.2487 31.6661 40.6316 34.7648 42.086C36.8988 43.0861 39.0149 44.1444 41.0822 45.2774C43.197 46.4385 45.2418 47.7221 47.3691 48.9862C47.6072 48.5846 47.3675 48.2833 47.0758 48.026C46.0584 47.1219 45.0933 46.1465 43.9922 45.3511C41.8173 43.7813 39.6355 42.2114 37.3346 40.8389C35.1529 39.5398 32.824 38.4927 30.5582 37.3366C29.6348 36.8692 28.7079 36.412 27.8619 35.7878C29.5164 36.47 31.1778 37.1454 32.8321 37.8413C35.3357 38.9009 37.7972 40.0286 39.9847 41.6945C41.1294 42.5693 42.4275 43.2334 43.6105 44.0572C44.5759 44.7343 45.447 45.5509 46.4157 46.2314C47.3334 46.8805 48.2717 47.5299 49.2877 48.0019C51.9466 49.2486 54.7603 50.1886 57.1802 51.9123C57.707 52.2857 58.213 52.6794 58.9162 53.2058C58.6836 52.8909 58.5937 52.6738 58.4304 52.5689C56.2949 51.1367 54.6008 49.2197 52.7712 47.4484C51.0738 45.8056 49.2724 44.2438 47.4011 42.7978C44.9048 40.8708 42.2868 39.0898 39.7312 37.2409C39.6395 37.1747 39.5932 37.0369 39.3881 36.7087C39.7941 36.868 40.013 36.9118 40.1796 37.027C42.9614 38.8787 45.7886 40.6657 48.4867 42.6261C50.0736 43.7806 51.5138 45.1596 52.923 46.5417C55.0842 48.6668 57.2209 50.8362 59.7442 52.52C61.5602 53.7288 63.4699 54.8462 65.6618 55.3225C66.65 55.537 67.6276 55.7823 68.5942 56.0788C70.104 56.5432 71.2394 57.6099 72.431 58.5744C72.6618 58.7624 72.8649 58.9775 73.1124 59.2034C73.4296 58.501 73.1169 58.0068 72.7623 57.567C69.6288 53.6606 66.4744 49.7815 62.3727 46.806C60.4969 45.4456 58.7748 43.854 56.8361 42.5888C54.1933 40.8657 51.4107 39.3604 48.6874 37.7632C48.5445 37.6791 48.4154 37.5815 48.3363 37.3268C48.5107 37.3598 48.7062 37.3588 48.8561 37.4361C51.172 38.6923 53.5266 39.8769 55.7726 41.2487C57.794 42.4806 59.7069 43.8929 61.6374 45.2677C62.8168 46.1086 63.9786 46.9802 65.0814 47.9161C67.8026 50.2265 70.1076 52.9225 72.35 55.6933C73.6739 57.328 75.1085 58.8749 76.564 60.3947C77.2546 61.1164 78.1115 61.6894 78.9131 62.3027C80.5027 63.5156 81.8219 64.972 82.926 66.6314C82.9933 66.7351 83.1125 66.8017 83.2888 66.9616C83.5855 66.5367 83.5702 66.1114 83.3863 65.7353C83.0786 65.1075 82.7782 64.4455 82.3217 63.929C80.2217 61.568 78.1079 59.2138 75.9176 56.9409C74.2148 55.1746 72.4462 53.4589 70.601 51.8452C68.4471 49.9567 66.1921 48.2076 63.9857 46.4042C63.7277 46.1953 63.4802 45.9694 63.253 45.7712C64.6437 46.7107 66.069 47.6301 67.4488 48.614C68.9476 49.6852 70.4603 50.7428 71.8547 51.943C73.4492 53.3136 74.9532 54.7997 76.4296 56.2992C78.5798 58.4824 80.6884 60.7063 82.783 62.9438C83.6528 63.87 84.3664 64.9417 85.2744 65.8239C86.3721 66.8935 87.5214 67.9466 88.7931 68.7989C90.8063 70.1473 92.1134 72.0219 93.2642 74.0625C93.479 74.4423 93.704 74.8188 94.0061 75.3437C94.348 74.3125 94.1404 73.3567 94.2409 72.4391C94.3644 71.3297 93.7108 70.6667 92.9891 69.9755C90.302 67.3947 87.6706 64.7529 84.9731 62.1823C82.6823 60.0007 80.3603 57.8496 77.9825 55.7664C76.0728 54.0935 74.0623 52.5394 72.083 50.948C70.4127 49.6039 68.7284 48.2801 67.1105 46.8578C67.7498 47.2908 68.3994 47.7138 69.0351 48.1571C71.1155 49.6092 73.2099 51.0408 75.2624 52.5337C77.6139 54.2429 79.7498 56.1963 81.8091 58.2447C83.584 60.0084 85.5012 61.6265 87.3246 63.3428C89.531 65.4171 91.6992 67.5354 93.8951 69.6267C94.5559 70.2554 95.1138 70.8898 95.397 71.8328C95.7725 73.0786 96.7904 73.9415 97.7469 74.7831C100.609 77.3146 102.389 80.3676 102.388 84.2832C102.389 85.3804 102.361 86.4841 102.194 87.5621C102.093 88.1951 102.194 88.673 102.565 89.1439C105.188 92.4645 108.068 95.5208 111.448 98.0964C113.088 99.3476 114.663 100.691 116.275 101.976C117.202 102.711 118.164 103.405 119.087 104.15C119.356 104.369 119.54 104.697 119.655 105.086C116.084 103.064 113.08 100.325 109.933 97.7794C106.762 95.2166 103.945 92.3017 101.452 89.0512C101.457 90.2788 102.592 90.8654 102.852 91.9864C102.165 91.2613 101.481 90.5397 100.794 89.8146C100.991 90.8353 101.609 91.5527 102.304 92.1956C105.687 95.3302 109.07 98.4579 112.481 101.565C113.42 102.424 114.457 103.174 115.42 104.009C115.743 104.284 115.961 104.674 116.224 105.006C114.849 103.923 113.429 102.883 112.099 101.742C110.304 100.201 108.582 98.5753 106.815 97.0002C105.482 95.8145 104.129 94.6492 102.786 93.4805C102.723 93.5552 102.653 93.6297 102.591 93.7044C104.403 94.9097 105.532 96.8026 107.403 98.019C109.107 99.1269 110.423 100.81 112.022 102.101C113.336 103.17 114.813 104.046 116.224 105.006ZM58.6543 63.8453L58.6922 63.8355C58.551 63.6074 58.4098 63.3794 58.1813 62.9994C58.8011 63.0654 59.2086 63.1081 59.8044 63.1704C57.6146 61.6963 51.7713 61.4766 50.6644 62.8207C53.0681 64.4654 55.5567 65.9053 58.3194 66.807C58.7906 66.9637 59.4197 67.1086 60.1394 66.5826C58.1359 65.8413 56.0195 65.6368 54.6901 63.8991C56.7148 64.5859 58.7464 65.2728 60.7609 65.956C61.171 64.953 60.8814 64.2466 60.071 64.0754C59.6059 63.9736 59.1266 63.9197 58.6543 63.8453ZM86.0293 85.7266L85.9881 85.7329C86.3723 85.9948 86.76 86.2534 87.2428 86.5816C87.4376 86.3578 87.7054 86.0491 87.8446 85.8862C87.7461 85.2507 87.6728 84.8006 87.603 84.3471C87.4954 83.6258 87.2049 82.9947 86.5266 82.6675C85.6166 82.2276 84.7034 81.7706 83.747 81.4708C81.7933 80.8637 79.8355 80.5858 77.9619 81.8175C77.6577 82.0194 77.2055 81.9864 76.8238 82.0811C75.995 82.28 75.1661 82.4858 74.069 82.7568C74.6912 83.1794 75.0448 83.4237 75.4088 83.658C76.4463 84.3257 77.5626 84.7201 78.7865 85.0095C81.1934 85.5673 83.5365 86.2958 86.0293 85.7266ZM69.5776 73.8689C70.2198 73.7842 70.8586 73.703 71.5901 73.6057C71.4359 73.3227 71.3973 73.1165 71.2714 73.0361C70.0332 72.239 69.3661 71.0135 68.7095 69.7642C68.4884 69.3432 68.1812 68.9588 67.8737 68.5881C67.7183 68.4011 67.4945 68.1994 67.2688 68.1555C65.8081 67.8803 64.3404 67.6187 62.8652 67.4118C62.4031 67.3478 61.908 67.4583 61.434 67.5278C60.936 67.6005 60.4438 67.7487 59.9424 67.818C59.1902 67.9218 58.4219 67.9466 57.7156 68.4933C58.2828 68.9289 58.7964 69.2679 59.2439 69.678C60.9117 71.221 62.8385 72.342 64.9371 73.16C66.4009 73.7301 67.8917 74.3417 69.5171 73.7721L69.5776 73.8689ZM84.2821 78.9641C84.4707 78.4076 84.8716 78.1451 85.4456 78.0322C86.8961 77.7484 88.3345 77.3273 89.8393 77.9117C89.3815 77.5049 88.8911 77.2314 88.4286 76.9239C87.99 76.627 87.2452 76.6898 87.0648 75.7481C87.9891 76.147 88.7918 76.3935 89.486 76.8136C90.6806 77.5312 91.8088 78.3544 93.0328 79.1855C93.3587 78.8947 93.6673 78.6208 93.9481 78.3671C93.3329 77.1046 92.9048 76.5061 92.1631 76.0444C90.091 74.7467 87.8662 73.8825 85.3961 73.7183C83.738 73.6086 82.081 73.4098 80.4234 73.2521C80.146 73.2247 79.8685 73.211 79.5533 73.1865C80.1132 75.3227 82.518 79.1 84.0878 80.2578C84.6008 80.6378 85.1192 81.1414 86.1901 81.045C85.4485 80.2917 84.8999 79.7432 84.3581 79.1948C84.3248 79.1121 84.3017 79.0398 84.2821 78.9641ZM77.9799 80.3639C78.1378 80.3522 78.2956 80.3473 78.4534 80.3355C78.9995 80.2634 79.5421 80.1947 80.2495 80.1006C79.88 79.7634 79.6491 79.5823 79.4597 79.3673C79.3989 79.298 79.4454 79.1374 79.4442 78.9557C79.814 79.0014 80.1427 79.0398 80.4645 79.078C80.5033 78.9928 80.5386 78.9041 80.5774 78.8189C79.0726 77.4013 76.9262 77.1245 75.2326 76.0063C75.8459 76.0379 76.4306 76.172 77.0192 76.2616C77.1971 76.2912 77.4272 76.2632 77.5757 76.1725C78.3254 75.7189 78.9888 75.8574 79.6645 76.6749C79.3653 76.7432 79.0868 76.8049 78.712 76.8928C79.3874 77.1755 79.9672 77.4227 80.7245 77.7406C80.4919 76.8634 80.2111 76.2771 79.5804 75.9847C78.752 75.6007 77.9028 75.2302 77.0285 74.9588C73.5957 73.898 70.1894 74.5793 66.7876 75.1818C66.712 75.1946 66.6526 75.2796 66.5246 75.3706C67.7965 76.7715 69.3504 77.8228 70.8174 78.9724C71.9991 79.8991 73.3347 80.5808 74.7942 80.952C75.9392 81.2439 77.0595 81.316 77.9799 80.3639ZM74.3428 73.3724L74.3016 73.3787C75.0673 73.8442 75.8653 73.9192 77.0033 73.6624C75.2922 72.5681 73.8509 71.5628 72.8271 70.0689C73.5894 70.2532 74.2221 70.6587 74.7258 71.2376C75.4189 72.0313 76.3502 72.4097 77.271 72.812C77.7042 72.9991 78.0216 72.8384 78.1374 72.3461C78.1809 72.1546 78.2484 71.9669 78.3161 71.7586C79.2867 72.0106 80.161 72.2889 81.0607 72.4543C81.7244 72.5791 82.4173 72.5534 83.0991 72.5927C83.1019 72.3664 83.1047 72.1401 83.1109 71.9173C83.2833 71.2886 82.9756 70.9385 82.4336 70.6815C81.3702 70.1677 80.3175 69.6233 79.2611 69.0959C76.7088 67.8197 74.1526 66.5743 71.2083 66.5001C69.9983 66.468 68.831 66.5976 67.5309 66.9244C67.8716 67.3778 68.0946 67.6411 68.2865 67.9281C68.8081 68.7265 69.3096 69.4836 70.1875 70.0225C70.8103 70.404 71.3431 71.1237 71.6466 71.8098C72.1868 73.044 72.8631 73.5289 74.3428 73.3724ZM95.0888 73.1901C94.9156 74.9984 94.6437 76.4625 94.6703 77.92C94.719 80.3584 95.3795 82.6741 96.5045 84.855C97.3215 86.4423 98.6919 87.361 100.194 88.1716C100.729 87.6022 100.369 86.4629 101.566 86.7314C101.79 83.3638 101.523 80.23 99.2066 77.6333C97.935 76.2118 96.608 74.8307 95.0888 73.1901ZM99.1815 88.8071C98.858 88.6214 98.6171 88.4161 98.3303 88.3235C97.2068 87.9564 96.069 87.6303 94.9385 87.2769C93.5314 86.8343 92.1131 86.7345 90.6496 86.9701C88.3581 87.336 86.0603 87.6608 83.7656 88.0095C83.6934 88.0189 83.6341 88.1039 83.4957 88.2051C83.6413 88.3543 83.7592 88.5238 83.9191 88.6252C85.2867 89.4924 86.6226 90.4313 88.0498 91.193C91.0677 92.8006 94.2089 93.0418 97.4172 91.734C97.6826 91.6241 97.9046 91.4143 98.1363 91.256C97.8559 90.6354 96.9775 90.4154 97.1993 89.6707C97.8097 89.109 98.9364 90.3265 99.1815 88.8071ZM56.4592 56.7001C56.5256 56.6015 56.5919 56.5029 56.6583 56.4043C58.4449 56.9373 59.7641 58.3937 61.5188 59.012C61.1988 58.2743 60.102 58.2401 60.095 57.1428C60.6606 57.431 61.1445 57.677 61.8804 58.0564C61.6415 57.6866 61.595 57.5626 61.5068 57.486C59.4239 55.6842 57.1348 54.4695 54.2531 54.5985C52.8911 54.6605 51.5188 54.4549 49.9393 54.3565C50.5197 55.3957 50.9495 56.4057 51.5973 57.2503C52.3599 58.2472 53.1976 59.2656 54.2105 59.9844C55.9235 61.1988 58.0804 61.1809 60.0303 61.8188C60.14 60.7161 58.3886 60.6567 58.9494 59.3916C59.3502 59.4206 59.7305 59.4493 60.1107 59.478C60.1392 59.3892 60.1677 59.3073 60.1962 59.2185C58.9448 58.3801 57.7003 57.5418 56.4592 56.7001ZM64.6435 65.2909C65.223 65.5655 65.7589 66.0384 66.2803 66.0243C68.0227 65.9704 69.7605 65.7382 71.518 65.5748C71.6508 65.3776 71.8042 65.1669 71.9407 64.9457C72.0701 64.7382 72.1826 64.5133 72.3544 64.2102C68.9057 61.3903 65.009 60.4163 60.592 60.7629C61.0644 61.9276 61.4825 63.0574 61.9902 64.1471C62.2474 64.6955 62.646 65.1805 63.0032 65.6786C63.792 66.7718 64.1129 66.8855 65.6002 66.6742C65.2419 66.2583 64.4548 66.132 64.6435 65.2909ZM92.1346 85.833C91.4007 85.289 90.8093 84.8634 90.2423 84.4141C90.0488 84.2574 89.7437 83.9793 89.7799 83.8221C89.9684 82.9946 89.3035 82.7018 88.9011 82.2477C88.5358 81.8386 88.1567 81.443 87.6931 80.947C88.0129 80.8721 88.182 80.7816 88.2363 80.8303C89.1896 81.6478 90.1291 82.4789 91.072 83.3134C90.9347 83.6032 90.8291 83.8213 90.727 84.0361C92.0769 84.9477 92.6676 85.1504 93.9678 85.0876C93.6293 84.4628 93.3142 83.8829 92.999 83.303C94.2734 83.9428 95.0374 84.83 94.4462 86.3347C95.3071 86.5854 96.0656 86.8005 96.824 87.0225C95.6434 85.729 95.2754 84.1575 94.6693 82.7099C94.556 82.4411 94.4398 82.1345 94.226 81.957C93.4287 81.2785 92.6314 80.5932 91.7643 80.0099C89.901 78.7456 87.9329 77.9155 85.7225 78.9339C86.501 80.3082 87.2387 81.6477 88.011 82.967C88.387 83.6094 88.735 84.3063 89.2568 84.8065C89.9822 85.4806 90.7929 86.1935 92.1346 85.833ZM72.7925 62.3333C72.943 62.0849 73.255 61.8076 73.2131 61.591C73.1102 61.0412 72.9843 60.4053 72.6361 60.0067C71.3887 58.5683 69.9571 57.33 68.0604 56.8299C65.9449 56.2723 63.7795 55.8649 61.8776 54.6791C61.7278 54.5881 61.5326 54.5754 61.0883 54.4533C62.0165 56.1963 62.814 57.6942 63.6151 59.1819C64.024 59.9413 64.6632 60.0966 65.4676 59.9351C65.2525 59.305 64.45 59.0448 64.5866 58.2545C65.9864 58.7381 66.2986 60.3843 67.7648 60.7693C69.0566 61.1076 70.2549 61.8013 71.568 62.3696C71.3527 61.4754 70.1665 61.4676 70.1235 60.2293C71.1252 61.02 71.93 61.6506 72.7925 62.3333ZM80.1827 65.826C80.8754 65.8209 81.2048 66.353 81.1809 66.8978C81.1513 67.6312 81.6285 67.8565 81.9938 68.2588C82.2427 68.0973 82.4155 67.9897 82.6263 67.8517C82.0763 66.5797 81.2455 65.5546 80.2723 64.6819C78.258 62.8741 76.1741 61.1476 74.091 59.3595C74.0478 59.5304 73.9879 59.6565 73.9898 59.7834C74.0187 61.049 73.9377 62.3337 74.1211 63.5772C74.3366 65.0062 74.7859 66.3833 76.3761 66.9927C77.5193 67.4285 78.62 67.9805 79.763 68.4301C80.135 68.5752 80.5673 68.5532 81.0499 68.6174C80.7989 67.5686 79.2063 67.1511 80.1827 65.826ZM49.591 55.0757C49.3779 54.5656 49.2841 54.1084 49.0241 53.7863C48.5952 53.2564 49.1992 52.9382 49.1736 52.5092C49.1678 52.4269 49.107 52.3507 49.0772 52.2646C48.8082 51.5584 48.3632 51.2203 47.556 51.0663C46.2356 50.8168 44.9379 50.3893 43.6787 49.904C42.249 49.348 40.8793 48.6453 39.3587 47.9545C39.9009 49.3018 41.5269 51.7323 42.3865 52.3704C43.5348 53.2281 44.7212 54.0485 45.9254 54.8246C47.0242 55.5274 48.209 55.6517 49.591 55.0757ZM92.222 74.0496C91.6145 72.7186 90.8838 71.6364 89.8728 70.7667C88.6414 69.7057 87.382 68.6786 86.1331 67.6414C85.5833 67.182 85.0266 66.7294 84.3885 66.2072C84.2252 66.9355 84.0401 67.4818 83.9852 68.0434C83.8442 69.4612 83.9675 70.8582 84.6235 72.1555C84.7875 72.4764 84.9435 72.8932 85.5525 72.719C85.0466 71.4853 84.5127 70.2992 84.937 68.7067C85.3977 70.269 85.7827 71.5732 86.1579 72.8396C87.0604 73.0565 87.939 73.2628 88.7424 73.4545C88.7635 72.8582 88.7804 72.3201 88.8109 71.525C88.7658 71.2844 87.8828 71.1569 88.2085 70.3243C88.5041 70.544 88.787 70.6812 88.9693 70.9098C89.6549 71.7583 90.361 72.6071 90.9497 73.523C91.2626 74.0034 91.5791 74.1959 92.222 74.0496ZM51.1073 60.8307C50.5753 60.5978 50.2003 60.4217 49.8183 60.2593C49.0508 59.9378 48.2727 59.647 47.5123 59.305C47.1645 59.1498 46.9691 58.8731 47.3383 58.4045C48.843 59.558 50.6573 59.793 52.6938 60.36C52.3826 59.7355 52.2298 59.3428 52.0009 58.9971C51.6173 58.4094 51.099 57.899 50.8084 57.2748C50.3309 56.2437 49.4823 56.1029 48.6285 56.3872C47.3201 56.8236 46.0239 56.5642 44.7242 56.5789C44.3436 56.5845 43.9633 56.5558 43.5246 56.5435C44.8381 59.0147 48.6272 61.1977 51.1073 60.8307ZM48.4118 48.6802C48.5077 48.966 48.5932 49.2619 48.7132 49.5377C48.8831 49.941 49.0874 50.3309 49.2642 50.7274C50.7358 53.9995 50.9597 53.6388 54.0297 53.8071C54.4718 53.8297 54.9299 53.9382 55.3728 53.6077C54.8662 52.9911 54.0167 52.9189 53.721 52.1575C54.4322 52.3172 55.0978 52.5551 55.7074 52.8952C56.3442 53.2494 56.9249 53.6989 57.5267 54.1075C57.6032 54.0262 57.6762 53.9414 57.7527 53.86C57.4759 53.5069 57.2584 53.0756 56.9152 52.821C54.3669 50.9449 51.3409 49.9885 48.4118 48.6802ZM80.482 86.2546C80.4641 86.3126 80.4463 86.3707 80.4284 86.4288C80.7529 86.5322 81.0739 86.6322 81.3984 86.7356C81.4197 86.6742 81.4376 86.6161 81.4589 86.5547C81.1344 86.4512 80.8065 86.3511 80.482 86.2546Z" fill="#F68B1F"/>
<path d="M28.4839 52.5824C27.7324 52.0759 26.9843 51.573 26.2363 51.0631C27.0857 51.4131 27.935 51.7699 28.453 52.5855C28.4563 52.5889 28.4839 52.5824 28.4839 52.5824Z" fill="#F68B1F"/>
<path d="M37.8143 62.4868C37.3337 62.258 36.8565 62.0258 36.3759 61.797C36.4076 61.7322 36.4324 61.6674 36.464 61.6027C36.969 61.8009 37.4672 61.9991 37.9722 62.1973C37.9195 62.2961 37.8669 62.388 37.8143 62.4868Z" fill="#F68B1F"/>
<path d="M37.5317 35.7154C37.2665 35.5338 36.9979 35.3556 36.7293 35.1706C36.7502 35.1434 36.7643 35.1161 36.7852 35.089C37.0504 35.2705 37.319 35.4487 37.5876 35.6338C37.5701 35.6644 37.5527 35.6882 37.5317 35.7154Z" fill="#F68B1F"/>
<path d="M24.4709 49.3646C24.6577 49.5075 24.848 49.647 25.0348 49.7899C25.0208 49.8103 25.0034 49.8341 24.986 49.851C24.7888 49.7183 24.595 49.589 24.3978 49.4563C24.4255 49.4292 24.4499 49.3987 24.4709 49.3646Z" fill="#F68B1F"/>
<path d="M46.9543 36.5074C47.128 36.609 47.3016 36.7106 47.4752 36.8122C47.4472 36.8598 47.4191 36.9075 47.3911 36.9551C47.2277 36.8571 47.0678 36.7625 46.9044 36.6645C46.9153 36.6132 46.9366 36.5586 46.9543 36.5074Z" fill="#F68B1F"/>
<path d="M77.9799 80.3639C74.865 80.2191 71.9458 79.4972 69.4784 77.454C69.1628 77.193 68.854 76.932 68.5384 76.6709C68.5909 76.579 68.6469 76.4906 68.6995 76.3986C68.9756 76.5289 69.3004 76.6049 69.5277 76.7963C71.8078 78.7378 74.5293 79.368 77.4251 79.4827C77.6856 79.4928 78.0186 79.4592 78.1883 79.5984C78.3614 79.7412 78.3743 80.0808 78.4569 80.3321C78.2922 80.3438 78.1378 80.3521 77.9799 80.3639Z" fill="#F68B1F"/>
<path d="M68.6692 72.7501C68.8739 72.8281 69.0679 72.9436 69.28 72.9806C69.9334 73.1018 69.9811 73.4075 69.581 73.8723C69.5776 73.8688 69.5308 73.7723 69.5342 73.7757C66.2422 73.255 61.932 71.3433 61.315 69.9402C62.0206 70.2746 62.5453 70.5486 63.0841 70.7815C64.4824 71.3886 65.877 72.0127 67.2965 72.5651C67.7231 72.7316 68.238 72.6831 68.7105 72.7369L68.6692 72.7501Z" fill="#F68B1F"/>
<path d="M83.0957 72.596C82.0696 72.1136 81.0295 71.6584 80.0176 71.1419C79.4997 70.8749 79.0449 70.499 78.664 69.9697C79.534 70.3199 80.411 70.6564 81.2704 71.0305C81.8945 71.3023 82.4974 71.6217 83.1075 71.9207C83.1047 72.147 83.1019 72.3732 83.0957 72.596Z" fill="#F68B1F"/>
<path d="M84.3548 79.1845C84.2612 79.269 84.1047 79.4419 84.081 79.4245C83.3228 78.9042 82.7276 78.2386 82.0916 77.2672C83.2708 77.5664 83.6545 78.418 84.2787 78.9606C84.3017 79.0398 84.3248 79.1121 84.3548 79.1845Z" fill="#F68B1F"/>
<path d="M74.3428 73.3723C73.8792 72.8763 73.2601 72.4777 73.1098 71.6016C74.1737 72.081 74.3383 72.3539 74.305 73.3821C74.3051 73.3753 74.3428 73.3723 74.3428 73.3723Z" fill="#F68B1F"/>
<path d="M75.9207 70.2752C75.5903 70.0962 75.2565 69.9138 74.9296 69.7314C75.5478 69.6499 75.5478 69.6499 75.9207 70.2752Z" fill="#F68B1F"/>
<path d="M99.3231 80.4051C99.532 80.7094 99.7476 81.0138 99.9597 81.3284C100.15 81.2245 100.333 81.1205 100.685 80.926C100.888 81.9468 101.597 82.8128 100.693 83.8508C100.505 84.0679 100.66 84.5944 100.689 84.9788C100.76 85.9054 100.764 85.9157 100.278 86.6675C100.204 86.5568 100.099 86.4629 100.083 86.3565C99.7707 84.412 99.4656 82.4675 99.1605 80.5231C99.2159 80.4826 99.2713 80.4422 99.3231 80.4051Z" fill="#F68B1F"/>
<path d="M97.2285 77.6122C98.5799 78.4004 99.0851 79.6958 98.5912 80.8144C98.3559 80.1566 98.1809 79.6092 97.9611 79.0853C97.7479 78.5821 97.4761 78.1022 97.2285 77.6122Z" fill="#F68B1F"/>
<path d="M98.5955 82.9642C99.2443 83.7266 99.274 84.375 99.067 85.3153C98.5282 84.52 98.4675 83.8815 98.5955 82.9642Z" fill="#F68B1F"/>
<path d="M88.0526 90.1335C89.1905 90.4459 90.3172 90.8301 91.4734 91.0502C92.6398 91.2738 93.8392 91.3297 95.008 91.6391C93.6369 92.1638 92.2498 91.7627 90.8931 91.6773C89.8036 91.609 88.7842 91.1403 87.9286 90.4577C87.9745 90.352 88.0135 90.2462 88.0526 90.1335Z" fill="#F68B1F"/>
<path d="M94.2611 90.7623C93.4523 90.7318 92.7874 90.7098 92.0506 90.6836C92.7498 89.8728 93.4938 89.8717 94.2611 90.7623Z" fill="#F68B1F"/>
<path d="M90.7976 88.5868C91.4003 88.6423 91.9997 88.6943 92.7019 88.7544C92.1557 89.3888 91.5699 89.3507 90.7976 88.5868Z" fill="#F68B1F"/>
<path d="M94.2565 89.4731C94.9618 89.5504 95.6706 89.6243 96.5335 89.7173C95.6457 90.2515 95.2415 90.2259 94.2565 89.4731Z" fill="#F68B1F"/>
<path d="M74.7471 78.3901C73.9834 78.5933 73.473 78.2784 72.9643 77.8263C73.8102 77.3465 73.9264 77.3822 74.7471 78.3901Z" fill="#F68B1F"/>
<path d="M55.526 57.3057C55.9632 57.7123 56.404 58.1155 56.8413 58.522C56.7683 58.6 56.6988 58.6746 56.6258 58.7525C56.0149 58.5221 55.4283 58.268 55.2278 57.5695C55.3283 57.485 55.4289 57.3937 55.526 57.3057Z" fill="#F68B1F"/>
<path d="M93.2603 78.5369C92.4497 78.3726 91.8064 77.9909 91.3788 77.0804C92.4895 77.101 92.8122 77.897 93.2603 78.5369Z" fill="#F68B1F"/>
<path d="M88.8627 75.0983C89.8129 75.0587 90.5446 75.5032 91.1603 76.4537C90.1616 76.2562 89.4928 75.7164 88.8627 75.0983Z" fill="#F68B1F"/>
<path d="M84.0453 77.5966C83.8008 77.4015 83.553 77.203 83.1659 76.8965C83.9133 76.628 84.0944 76.9526 84.265 77.2941C84.1917 77.3995 84.1185 77.498 84.0453 77.5966Z" fill="#F68B1F"/>
<path d="M81.9891 75.8499C81.8333 75.6971 81.6774 75.5443 81.5217 75.3847C81.5809 75.3134 81.6332 75.242 81.6923 75.1708C81.8654 75.3135 82.0385 75.4562 82.2151 75.5955C82.142 75.6803 82.069 75.7652 81.9891 75.8499Z" fill="#F68B1F"/>
<path d="M68.707 72.7403C67.9981 72.3955 67.2857 72.0541 66.5802 71.7128C67.4257 71.2741 68.1043 71.5739 68.7339 71.9486C68.8326 72.0081 68.6931 72.4761 68.6623 72.75C68.6692 72.7501 68.707 72.7403 68.707 72.7403Z" fill="#F68B1F"/>
<path d="M68.3049 71.1478C67.7374 70.7397 67.0652 71.0296 66.8613 70.3277C68.0383 69.9719 68.0793 69.9861 68.3049 71.1478Z" fill="#F68B1F"/>
<path d="M64.7039 69.0049C65.1532 68.9933 65.3217 69.2286 65.2482 69.6322C65.2336 69.7006 65.03 69.8044 64.9446 69.7793C64.5039 69.647 64.5144 69.3523 64.7039 69.0049Z" fill="#F68B1F"/>
<path d="M85.4557 84.7012C84.5813 84.4298 83.7069 84.1584 82.8292 83.8835C82.8543 83.7912 82.8828 83.7024 82.9045 83.6136C83.9067 83.8077 84.9816 83.6667 86.094 84.3833C85.756 84.5437 85.5835 84.6239 85.4076 84.7074L85.4557 84.7012Z" fill="#F68B1F"/>
<path d="M85.4145 84.7075C85.7451 84.8659 86.0792 85.0209 86.5087 85.2251C86.3074 85.4214 86.1512 85.5806 85.9915 85.7364L86.0327 85.73C85.5846 85.6456 85.1295 85.5749 84.685 85.4734C84.4013 85.4047 84.1284 85.2916 83.9163 84.977C84.4317 84.8873 84.9471 84.7977 85.4591 84.7046L85.4145 84.7075Z" fill="#F68B1F"/>
<path d="M82.1366 85.2704C81.0892 85.398 80.555 85.0657 80.1301 84.4913C80.8483 84.3596 81.425 84.5827 82.1366 85.2704Z" fill="#F68B1F"/>
<path d="M67.2234 63.5124C68.2553 63.7995 69.1054 64.3723 70.064 65.3202C68.877 65.0964 68.7273 65.0054 67.2234 63.5124Z" fill="#F68B1F"/>
<path d="M71.5481 65.0849C70.8103 64.5854 70.1438 64.1383 69.3447 63.597C70.4559 63.5764 71.2241 64.114 71.5481 65.0849Z" fill="#F68B1F"/>
<path d="M63.6478 64.2979C63.4423 64.004 63.2402 63.7066 63.0381 63.4161C63.714 63.3799 63.9265 63.6671 63.6478 64.2979Z" fill="#F68B1F"/>
<path d="M62.731 61.6293C62.715 61.8143 62.737 61.9757 62.6774 62.0881C62.6527 62.1392 62.3784 62.1427 62.3651 62.1083C62.3119 61.9773 62.3035 61.8229 62.3224 61.6826C62.3261 61.6586 62.5284 61.6577 62.731 61.6293Z" fill="#F68B1F"/>
<path d="M91.6821 83.0501C92.5621 83.4244 92.5621 83.4244 92.7551 84.1709C91.8779 84.1326 91.7188 83.9626 91.6821 83.0501Z" fill="#F68B1F"/>
<path d="M70.4007 59.1664C70.0884 59.1934 69.8646 59.2627 69.8243 59.2004C69.7198 59.0517 69.6984 58.8423 69.6458 58.6634C69.7593 58.6339 69.9215 58.5502 69.9758 58.592C70.1115 58.7103 70.1985 58.8828 70.4007 59.1664Z" fill="#F68B1F"/>
<path d="M71.9906 60.3587C72.0219 60.5991 72.047 60.7914 72.072 60.9837C71.9278 61.0025 71.7835 61.0213 71.6359 61.0366C71.6177 60.8444 71.5858 60.652 71.5984 60.4635C71.6023 60.4259 71.8015 60.4009 71.9906 60.3587Z" fill="#F68B1F"/>
<path d="M77.2077 63.7971C78.5551 63.8035 78.9584 64.1891 78.9791 65.5574C78.3424 64.9255 77.8242 64.4082 77.2077 63.7971Z" fill="#F68B1F"/>
<path d="M75.4152 63.7372C76.2546 64.6185 76.3536 65.4837 76.4251 66.3624C75.6818 65.7463 75.476 64.9174 75.4152 63.7372Z" fill="#F68B1F"/>
<path d="M74.6125 62.9421C74.6154 62.7021 74.6115 62.4621 74.6316 62.2257C74.6319 62.2052 74.8448 62.1735 74.8481 62.1838C74.9276 62.4111 74.9934 62.6382 75.0557 62.8687C74.908 62.8909 74.7568 62.9165 74.6125 62.9421Z" fill="#F68B1F"/>
<path d="M48.1537 54.3035C48.1071 54.7418 47.833 55.0024 47.454 54.8709C46.0167 54.3765 44.8276 53.4909 43.6803 52.551C43.7434 52.442 43.8064 52.3331 43.8695 52.2242C44.5332 52.6198 45.1792 53.0598 45.8745 53.3976C46.6073 53.7529 47.3859 54.0026 48.1537 54.3035Z" fill="#F68B1F"/>
<path d="M47.5332 53.1815C46.7262 53.2847 46.2883 53.2039 46.06 52.5393C46.7459 52.2495 47.0285 52.685 47.5332 53.1815Z" fill="#F68B1F"/>
<path d="M44.0373 50.8548C43.9752 51.166 43.9591 51.3578 43.8884 51.5284C43.8708 51.5659 43.5794 51.5588 43.5662 51.5244C43.5101 51.342 43.4749 51.1392 43.4978 50.9544C43.4983 50.9132 43.7659 50.9028 44.0373 50.8548Z" fill="#F68B1F"/>
<path d="M58.6543 63.8453C59.0253 64.0659 59.3962 64.2933 59.934 64.6154C58.6349 64.8599 58.6349 64.8599 58.6956 63.8321C58.6955 63.8389 58.6543 63.8453 58.6543 63.8453Z" fill="#F68B1F"/>
<path d="M86.6983 72.116C86.5175 71.7641 86.113 71.4813 86.455 70.9987C86.9933 71.5574 86.9933 71.5574 86.6983 72.116Z" fill="#F68B1F"/>
<path d="M49.0301 58.014C49.7767 58.3627 50.2983 58.6057 50.8403 58.8558C50.2389 59.5238 49.4199 59.212 49.0301 58.014Z" fill="#F68B1F"/>
<path d="M52.1116 51.4381C51.177 51.3202 50.5115 50.7908 50.0034 50.0131C50.8959 50.2058 51.7116 50.5074 52.1116 51.4381Z" fill="#F68B1F"/>
<path d="M52.2938 52.229C52.7698 52.5503 53.1948 52.8402 53.6744 53.1581C52.6645 53.581 52.3041 53.3366 52.2938 52.229Z" fill="#F68B1F"/>
</g>
<defs>
<clipPath id="clip0_20_55">
<rect width="35.7194" height="114.019" fill="white" transform="translate(19.0103 43.9963) rotate(-44.2912)"/>
</clipPath>
</defs>
</svg>
